<svg width="134" height="135" fill="none" xmlns="http://www.w3.org/2000/svg"><path fill-rule="evenodd" clip-rule="evenodd" d="M18.01 8.815c-6.374 7.682.412 20.135-.665 30.209-.677 6.332-2.231 12.425-4.522 18.313-2.784 7.157-8.752 12.712-10.473 20.23-1.953 8.535-3.882 18.125-.16 26.223 3.65 7.942 11.385 15.428 19.91 16.738 9.9 1.522 17.884-9.608 27.857-9.398 6.7.141 11.346 7.246 17.388 10.351 9.16 4.707 18.253 16.126 27.773 12.854 8.863-3.046 7.472-17.03 10.432-25.984 2.243-6.784.898-14.925 5.005-20.71 5.71-8.046 21.262-8.533 22.762-18.408 1.361-8.964-10.449-14.983-16.656-21.805-4.944-5.435-11.815-8.69-16.348-14.475-4.887-6.236-5.537-15.183-11.216-20.701C83.19 6.51 75.504 2.035 67.456 1.024c-8.05-1.011-15.27 4.339-23.217 5.591-8.723 1.374-20.623-4.555-26.228 2.2z" fill="#48C76C"/></svg>