<svg width="238" height="177" fill="none" xmlns="http://www.w3.org/2000/svg"><path fill-rule="evenodd" clip-rule="evenodd" d="M193.98 98.289c8.165-18.416 44.154-21.081 43.917-41.205-.203-17.19-29.108-18.4-44.71-26.169-11.187-5.57-23.456-7.947-34.712-13.378C148.6 12.772 141.439 2.328 130.577.706c-10.908-1.63-20.816 6.669-31.763 7.92-11.286 1.29-23.136-4.231-33.81-.426C54.29 12.02 48.529 23.36 39.25 29.86 27.28 38.247 7 38.734 1.994 52.344c-4.92 13.373 7.81 27.252 14.264 40.023 5.23 10.348 18.335 16.677 20.155 28.085 2.652 16.624-18.897 36.578-7.795 49.399 10.461 12.08 31.674-4.468 47.722-3.294 10.94.801 20.416 7.954 31.328 9.079 11.197 1.153 22.424.104 33.374-2.412 11.47-2.636 22.454-6.766 32.541-12.735 10.843-6.416 25.065-11.79 28.955-23.653 4.131-12.598-13.935-26.417-8.558-38.546z" fill="#48C76C"/></svg>