<svg width="250" height="252" fill="none" xmlns="http://www.w3.org/2000/svg"><path fill-rule="evenodd" clip-rule="evenodd" d="M34.07 15.619c-11.92 14.39.77 37.718-1.243 56.589-1.266 11.863-4.173 23.276-8.457 34.306-5.207 13.408-16.367 23.814-19.586 37.898-3.653 15.987-7.261 33.953-.3 49.122 6.828 14.878 21.291 28.902 37.233 31.356 18.516 2.85 33.447-17.998 52.098-17.605 12.529.264 21.218 13.573 32.518 19.389 17.132 8.818 34.135 30.209 51.938 24.081 16.575-5.706 13.974-31.903 19.51-48.676 4.195-12.709 1.679-27.959 9.359-38.798 10.68-15.071 39.764-15.984 42.568-34.482 2.546-16.792-19.54-28.067-31.147-40.847-9.247-10.182-22.097-16.28-30.574-27.116-9.139-11.683-10.354-28.443-20.974-38.78-11.05-10.755-25.423-19.138-40.474-21.032-15.055-1.895-28.558 8.127-43.42 10.473-16.313 2.575-38.566-8.532-49.048 4.122z" fill="#48C76C"/></svg>