<svg width="289" height="225" fill="none" xmlns="http://www.w3.org/2000/svg"><path fill-rule="evenodd" clip-rule="evenodd" d="M162.507 3.374c15.675.634 32.272-2.552 46.56 2.75 14.263 5.294 22.312 17.514 33.083 26.807 10.221 8.819 21.581 16.672 29.325 27.038 8.024 10.74 18.425 22.277 16.868 34.793-1.615 12.99-21.329 20.24-25.285 32.891-4.095 13.098 8.336 27.527 2.445 40.16-5.724 12.277-19.681 21.5-33.993 27.496-14.167 5.935-31.799 1.788-46.724 6.319-18.032 5.474-30.73 21.042-49.819 22.99-18.809 1.92-38.692-3.589-54.311-12.36-15.56-8.739-21.98-24.602-33.39-36.892-11.43-12.309-26.934-22.128-34.54-36.272C4.84 124.427-3.429 107.438 2.538 92.179c6.231-15.938 27.354-24.394 42.48-35.675C56.824 47.7 70.936 41.616 82.464 32.57c11.822-9.276 16.693-24.83 31.662-30.29 14.857-5.42 32.13.435 48.382 1.093z" fill="#48C76C"/></svg>