<svg width="127" height="94" fill="none" xmlns="http://www.w3.org/2000/svg"><path fill-rule="evenodd" clip-rule="evenodd" d="M103.272 52.412c4.366-9.83 23.61-11.253 23.483-21.996-.108-9.177-15.565-9.822-23.907-13.97-5.982-2.973-12.543-4.242-18.562-7.14-5.28-2.544-9.11-8.12-14.917-8.986-5.833-.87-11.131 3.56-16.985 4.228-6.035.689-12.37-2.258-18.079-.227-5.729 2.039-8.81 8.093-13.771 11.563C14.134 20.36 3.289 20.62.612 27.885c-2.63 7.14 4.176 14.548 7.628 21.366 2.796 5.524 9.804 8.902 10.777 14.991 1.418 8.875-10.105 19.527-4.168 26.37 5.594 6.45 16.936-2.385 25.518-1.758 5.85.428 10.917 4.246 16.752 4.847 5.987.616 11.99.055 17.846-1.288 6.133-1.407 12.006-3.611 17.4-6.798 5.798-3.425 13.403-6.293 15.483-12.626 2.209-6.725-7.452-14.102-4.576-20.577z" fill="#48C76C"/></svg>