<svg width="40" height="28" fill="none" xmlns="http://www.w3.org/2000/svg"><path fill-rule="evenodd" clip-rule="evenodd" d="M17.616 2.65c2.276.143 4.376-2.028 6.594-1.445 2.383.626 5.076 2.129 5.843 4.713.794 2.675-1.925 5.167-2.077 7.979-.138 2.563 1.897 4.982 1.244 7.444-.673 2.54-2.58 4.653-4.745 5.756-2.115 1.077-4.544.41-6.859.156-2.12-.232-4.354-.253-6.12-1.578-1.724-1.295-2.194-3.8-3.475-5.622-1.532-2.178-4.899-3.394-4.807-6.156.093-2.8 3.904-3.5 5.208-5.9C9.686 5.672 8.41 1.61 10.578.35c2.204-1.283 4.554 2.144 7.038 2.3z" fill="#48C76C" fill-opacity=".7"/><path d="M36.023 18.896l.022.087c.014.206-.113.411-.316.458-.359.1-.7.277-.963.545a2.13 2.13 0 00-.6 1.865c.028.16.082.343-.015.492a.42.42 0 01-.6.13c-.171-.116-.185-.34-.26-.516-.325-.864-1.259-1.44-2.167-1.337-.198.012-.409.116-.599.015a.43.43 0 01-.155-.621c.12-.176.348-.186.526-.265.854-.333 1.414-1.282 1.293-2.201-.015-.182-.102-.372-.027-.55.039-.106.131-.174.221-.231l.094-.024c.193-.026.402.08.462.274.08.237.155.48.3.689a2.124 2.124 0 001.902.968c.17-.008.333-.059.502-.065.173 0 .318.13.38.287zm-3.1-.24a3.09 3.09 0 01-.733 1.233c.46.147.884.403 1.227.746.142-.463.395-.889.73-1.235a3.11 3.11 0 01-1.225-.743zm6.594 5.057l.022.088c.01.187-.09.386-.273.443-.284.09-.577.145-.863.223.057.234.117.468.177.703.028.119.062.247.018.367a.42.42 0 01-.803-.035c-.078-.275-.138-.554-.21-.83-.288.066-.571.153-.861.208a.421.421 0 01-.476-.357.418.418 0 01.272-.458c.282-.087.573-.144.858-.22-.066-.278-.144-.553-.205-.831a.424.424 0 01.206-.472.418.418 0 01.592.226c.09.287.146.583.225.872.29-.066.575-.156.868-.21.196-.035.385.101.453.283zm-8.937.637c.185.243.017.635-.283.664-.31.059-.585-.304-.447-.59.111-.299.56-.344.73-.074zm5.436-10.271c.19.255-.006.66-.321.664-.31.032-.555-.343-.401-.617.125-.283.558-.31.722-.047z" fill="#442C22"/><path d="M12.7 15.773c-.037-.096-.004-.195.027-.288l.018-.056c.263-.832.38-1.736.17-2.594-.188-.8-.654-1.507-1.222-2.09a2.314 2.314 0 00-.027-.027c-.066-.066-.135-.136-.143-.233l-.1.014v-.003m1.278 5.277l-.095.031v.003m.095-.034c.042.127.18.199.309.19m-.31-.19l-.092.037-.001-.003m0 0a.391.391 0 01-.011-.23 1.326 1.326 0 01.054-.177h0c.259-.823.373-1.707.169-2.541h0c-.184-.777-.638-1.47-1.198-2.044h0a1.562 1.562 0 00-.023-.023 1.026 1.026 0 01-.093-.102.371.371 0 01-.082-.194m1.184 5.311c.06.177.245.265.406.256m-1.59-5.567a.39.39 0 01.387-.435c.976-.004 1.932.286 2.781.74.387.205.755.446 1.1.714a644.397 644.397 0 00.393-1.18.391.391 0 01.674-.137l.55.55.311.31.242-.24.623-.624a.407.407 0 01.297-.133.393.393 0 01.376.283l.225.675v.002l.185.552c.753-.496 1.552-.937 2.412-1.236h0c.455-.156.937-.272 1.43-.277a.392.392 0 01.404.334.412.412 0 01-.14.363c-.57.571-1.04 1.26-1.238 2.038v.001c-.234.887-.104 1.834.187 2.707.06.15.04.355-.11.472a.393.393 0 01-.22.085c-.035.003-.07.004-.1.004h-.026l-.062.001h-.002 0c-.881.016-1.777.23-2.483.754h-.001c-.76.552-1.253 1.4-1.569 2.287v.002h0l-.024.069-.007.02a.837.837 0 01-.039.104.384.384 0 01-.169.193.391.391 0 01-.56-.218c-.236-.692-.555-1.36-1.032-1.906h0a3.58 3.58 0 00-1.228-.92h0c-.614-.28-1.298-.384-1.977-.387m-1.59-5.567l1.587 5.467m0 0l.006.1h-.003m-.003-.1v.1h.003m6.74-3.672h0l-.064.045-.01.008-.062.045a.5.5 0 01-.193.087h0a.39.39 0 01-.433-.264l-.261-.78-.12-.36-.047.047c-.214.214-.429.428-.642.643a.41.41 0 01-.35.135c-.134-.013-.229-.109-.287-.169l-.002-.001a116.221 116.221 0 00-.654-.655l-.085.255c-.09.271-.181.542-.27.814h0c-.002.002-.002.005-.003.007a.475.475 0 01-.154.25.391.391 0 01-.508-.026 6.726 6.726 0 00-1.472-1.023l5.617.942zm0 0l.003-.002m-.003.002l.003-.002m0 0c.725-.497 1.49-.941 2.308-1.253.125-.047.25-.09.377-.129m-2.685 1.382l2.685-1.382m-8.873 1.639a4.953 4.953 0 00-.818-1.704c.48.104.947.28 1.386.507l-.568 1.197zm0 0c.228.875.157 1.796-.075 2.654m.075-2.654l-.075 2.654m0 0c.889.063 1.782.316 2.521.84.71.495 1.236 1.204 1.605 1.97.372-.773.905-1.488 1.624-1.983.735-.516 1.621-.764 2.502-.827-.189-.703-.275-1.446-.17-2.177.104-.767.422-1.49.866-2.116M13.493 15.3l8.948-4.293" fill="#442C22" stroke="#442C22" stroke-width=".2"/><path d="M9.216.248c.898-.283 1.85-.147 2.775-.18.327.024.718-.087.988.153.19.158.188.42.199.644a4.036 4.036 0 001.054 2.576 4.3 4.3 0 003.656 1.354 4.061 4.061 0 002.373-1.156c.158-.164.363-.328.608-.284.41.034.655.567.4.896-1.09 1.246-2.814 1.893-4.458 1.7a5.44 5.44 0 01-3.617-1.943c-.65-.787-1.039-1.771-1.153-2.783-.58.003-1.161-.007-1.742.005a2.868 2.868 0 00-1.923.826c-2.33 2.321-4.65 4.652-6.98 6.976 1.599 1.598 3.197 3.195 4.794 4.794.546-.538 1.087-1.08 1.625-1.627-.002-.888-.005-1.777 0-2.666a.578.578 0 01.454-.587c.358-.09.727.228.7.594.004 5.752 0 11.504.001 17.255h16.756V10.009c.006-.241-.03-.491.047-.724a.581.581 0 01.831-.269c.206.117.293.362.28.589-.002 5.897 0 11.794-.002 17.691a.608.608 0 01-.654.656H8.47c-.191.004-.4-.041-.523-.2-.178-.201-.126-.488-.136-.734.004-4.39.002-8.782.001-13.173-.419.41-.815.843-1.251 1.234a.538.538 0 01-.693.038c-.313-.246-.578-.548-.863-.825A369.934 369.934 0 00.232 9.504.826.826 0 010 9.11v-.157c.058-.273.289-.448.474-.636C2.813 5.98 5.149 3.64 7.488 1.304A4.104 4.104 0 019.216.248z" fill="#442C22"/><path d="M16.268.255c.131-.155.343-.193.537-.188 2.44.002 4.881.001 7.322.001.768-.017 1.546.157 2.209.553.562.32.991.81 1.447 1.257 2.225 2.226 4.45 4.45 6.677 6.675a.868.868 0 01.236.398v.15a.793.793 0 01-.198.367c-1.841 1.844-3.686 3.685-5.528 5.53-.118.117-.266.223-.44.223a.578.578 0 01-.603-.602c.002-.266.228-.44.396-.614 1.661-1.655 3.317-3.315 4.976-4.972-2.288-2.299-4.588-4.586-6.878-6.883a2.922 2.922 0 00-2.091-.923c-2.508-.004-5.016-.002-7.524 0-.171-.002-.358-.02-.489-.142a.582.582 0 01-.05-.83z" fill="#442C22"/></svg>