<svg width="1920" height="214" fill="none" xmlns="http://www.w3.org/2000/svg"><path d="M-128.956 208.647c-2-19 64.08-56.902 113-79.647 73.444-34.147 179 0 116.5 32.062-31.943 16.386-27.443-26.915 103.557-52.915s395.443 104.415 486.443 52.915c91-51.5 36-124 96.5-133.5s145.557 80.585 318.556 80.585c173 0 232.94 77 296.44 0s6.5-132.584-17-93.085c-23.5 39.5 298.56 27.585 336.06 93.085s35.44 129.416 119.94 94.416 81.5-78.001 34-52.501c-48.93 26.269 57.5 23.667 78.5 52.5" stroke="#0F2415" stroke-width="3"/></svg>