<svg width="580" height="461" fill="none" xmlns="http://www.w3.org/2000/svg"><path fill-rule="evenodd" clip-rule="evenodd" d="M275.207.889c66.604-6.168 131.842 20.625 183.899 53.767 50.171 31.941 79.248 78.101 98.998 126.339 19.685 48.079 30.654 98.837 13.088 147.418-18.014 49.814-52.275 100.563-111.215 123.947-56.386 22.37-121.58-5.666-184.77-6.518-61.57-.831-127.606 26.689-180.204 1.592-53.27-25.419-68.447-79.821-83.255-127.304-13.84-44.385-18.067-90.772 1.859-133.712 19.476-41.971 64.525-70.431 106.777-100.397C168.302 52.037 211.03 6.831 275.207.889z" fill="#48C76C"/></svg>