<svg width="317" height="252" fill="none" xmlns="http://www.w3.org/2000/svg"><path fill-rule="evenodd" clip-rule="evenodd" d="M150.415.486c36.403-3.372 72.059 11.274 100.51 29.39 27.422 17.461 43.313 42.694 54.108 69.063 10.759 26.281 16.754 54.028 7.153 80.584-9.845 27.23-28.571 54.971-60.784 67.754-30.818 12.229-66.45-3.097-100.987-3.563-33.651-.454-69.743 14.589-98.49.87-29.116-13.895-37.41-43.633-45.504-69.589-7.565-24.262-9.874-49.619 1.016-73.092 10.645-22.943 35.266-38.5 58.36-54.88C91.985 28.444 115.338 3.733 150.414.485z" fill="#48C76C"/></svg>