<svg width="39" height="41" fill="none" xmlns="http://www.w3.org/2000/svg"><path fill-rule="evenodd" clip-rule="evenodd" d="M18.893 10.627c2.683-.533 5.403.803 7.766 2.214 2.358 1.409 4.713 3.218 5.703 5.83.96 2.53.285 5.387-.463 7.99-.624 2.175-2.484 3.63-3.456 5.665-1.064 2.23-.315 5.827-2.517 6.852-2.29 1.065-4.555-1.97-7.033-2.407-1.927-.34-3.832.456-5.765.149-2.678-.426-5.85-.228-7.676-2.286-1.803-2.031-1.39-5.224-1.428-7.973-.039-2.78-.493-5.94 1.205-8.105 1.7-2.167 5.1-1.57 7.458-2.938 2.327-1.35 3.582-4.469 6.206-4.99z" fill="#48C76C" fill-opacity=".7"/><path d="M31.327 2.27h.092c.207.037.38.215.376.428.01.38.102.762.301 1.09a2.177 2.177 0 001.7 1.056c.168.013.362.004.485.138a.43.43 0 01-.02.627c-.158.14-.383.099-.576.13-.937.108-1.74.89-1.862 1.817-.038.2.013.434-.135.597a.44.44 0 01-.654 0c-.145-.161-.097-.391-.132-.587-.118-.93-.92-1.72-1.862-1.828-.184-.03-.394.009-.552-.11-.095-.064-.14-.172-.174-.276v-.1c.021-.196.178-.377.385-.389.255-.021.516-.034.758-.126a2.17 2.17 0 001.431-1.647c.034-.17.024-.344.06-.514.043-.171.208-.283.379-.305zm-1.006 3.016c.422.258.782.612 1.04 1.031.26-.419.62-.776 1.045-1.031a3.129 3.129 0 01-1.044-1.03 3.18 3.18 0 01-1.04 1.03zM36.97 0h.093c.188.036.36.184.371.381.02.303 0 .608.007.911.247.001.494 0 .74-.002.126.002.262 0 .37.074a.43.43 0 01-.234.787c-.292.01-.584 0-.876.003-.005.302.01.604-.006.906a.43.43 0 01-.472.382.427.427 0 01-.387-.383c-.016-.301 0-.603-.006-.905-.292-.004-.583.006-.875-.003a.434.434 0 01-.417-.32.428.428 0 01.372-.532c.306-.018.614 0 .92-.007.006-.304-.012-.609.007-.913.013-.202.196-.357.393-.379zm-1.583 9.02c.286-.123.633.14.587.445-.018.322-.446.505-.696.297-.268-.184-.201-.64.109-.743zm-8.838-7.936c.3-.126.654.169.58.483-.047.315-.48.465-.712.245-.25-.195-.17-.63.132-.728zm-9.831 4.17h2.115c.76.088 1.477.532 1.846 1.21.209.367.307.79.303 1.212v12.122a2.37 2.37 0 01-2.351 2.447c-.601 0-1.202.007-1.802-.002a.588.588 0 010-1.175c.623-.015 1.248.008 1.871-.01.605-.024 1.117-.583 1.099-1.186.003-3.95 0-7.897.001-11.845-.003-.294.029-.603-.097-.878a1.184 1.184 0 00-1.07-.712c-.625 0-1.251-.007-1.876.004-.594.028-1.102.57-1.093 1.164-.004 3.557 0 7.114-.002 10.67.02.274-.158.552-.428.621-.225.045-.457.02-.685.025-4.066.002-8.132-.001-12.198.002-.613-.01-1.165.53-1.166 1.143-.006.951-.003 1.902-.001 2.853-.007.51.363.992.853 1.128.378.097.772.007 1.155.057.196.025.399.158.437.363.147.542.243 1.095.354 1.644.77 4.004 1.528 8.01 2.296 12.013.153.808.931 1.432 1.753 1.41h19.401c.822.02 1.598-.604 1.752-1.412.627-3.254 1.245-6.51 1.87-9.765a.599.599 0 01.465-.493.595.595 0 01.662.343c.096.21.016.442-.02.656-.604 3.142-1.202 6.285-1.805 9.428a2.969 2.969 0 01-1.403 2.01c-.39.24-.839.36-1.29.415H7.808c-.886-.076-1.734-.547-2.233-1.288a3.027 3.027 0 01-.481-1.2c-.826-4.316-1.654-8.633-2.479-12.95-.52.018-1.055-.074-1.496-.36C.493 24.537.09 23.856 0 23.136V19.88c.075-.544.305-1.073.704-1.457a2.375 2.375 0 011.722-.683l12.053-.001c.005-3.402-.004-6.803.005-10.205.013-1.189 1.05-2.232 2.234-2.28z" fill="#442C22"/><path d="M17.484 17.481c.496-.162 1.066.21 1.123.728.08.485-.315.977-.806 1.003a.89.89 0 01-.95-.791.888.888 0 01.633-.94zm5.248.523a.602.602 0 01.537-.264c3.255-.002 6.51 0 9.767 0a2.38 2.38 0 011.823.79c.338.367.525.846.604 1.333v3.258c-.062.427-.203.85-.468 1.196a2.382 2.382 0 01-1.959.959c-8.426-.002-16.852 0-25.279-.002a.598.598 0 01-.601-.42c-.13-.376.206-.795.6-.76 8.45-.004 16.902.003 25.352-.003.623.012 1.18-.544 1.171-1.168.002-.95.004-1.9-.001-2.851a1.183 1.183 0 00-.775-1.079c-.236-.09-.494-.07-.742-.072-3.071.002-6.143-.002-9.215.002-.224-.006-.477.03-.668-.115a.592.592 0 01-.146-.804z" fill="#442C22"/></svg>