<svg width="43" height="44" fill="none" xmlns="http://www.w3.org/2000/svg"><path d="M24.493 6.611l.078-.05c.195-.078.435-.02.545.162.212.316.492.59.836.762.613.318 1.387.32 2.002-.012.148-.078.308-.188.483-.14a.429.429 0 01.317.541c-.058.203-.271.288-.418.416-.736.591-.999 1.681-.609 2.53.075.189.243.36.205.578a.44.44 0 01-.554.348c-.209-.06-.29-.28-.425-.427-.595-.723-1.695-.965-2.549-.555-.171.073-.329.217-.526.201-.114-.004-.21-.072-.294-.142l-.053-.083c-.086-.178-.05-.415.119-.536.204-.153.418-.303.574-.51a2.17 2.17 0 00.334-2.156c-.061-.162-.163-.304-.223-.467-.055-.168.026-.35.158-.46zm.755 3.088c.494-.007.987.101 1.43.318-.004-.493.11-.986.334-1.428-.495.01-.99-.1-1.432-.317a3.18 3.18 0 01-.332 1.427zM12.609 8.318l.079-.05c.178-.069.402-.035.516.126.178.246.325.513.492.767.209-.13.417-.263.626-.396.107-.065.22-.14.351-.135a.43.43 0 01.222.791c-.243.163-.495.31-.74.47.156.258.33.505.477.77a.43.43 0 01-.196.575.427.427 0 01-.532-.119c-.174-.246-.322-.51-.487-.763-.249.152-.49.316-.742.464a.434.434 0 01-.524-.05.428.428 0 01.032-.647c.25-.18.52-.328.775-.496-.156-.26-.334-.51-.48-.776-.097-.18-.024-.407.131-.531zm18.914 1.842c.178-.255.611-.217.735.066.156.282-.109.665-.43.622-.326-.013-.513-.436-.305-.687zM19.817 8.151c.187-.266.643-.205.747.1.13.291-.157.648-.471.586-.315-.031-.48-.443-.276-.686z" fill="#442C22"/><path fill-rule="evenodd" clip-rule="evenodd" d="M21.761 15.267c-1.88-.569-3.993.444-5.585 1.663-1.55 1.185-2.035 3.381-3.163 5.03-1.025 1.497-2.395 2.66-3.221 4.296-.912 1.804-2.181 3.731-1.86 5.756.324 2.046 2.662 2.987 3.539 4.835.933 1.968.158 4.873 1.735 6.287 1.544 1.384 3.93.458 5.935.592 1.774.118 3.515.451 5.27.154 1.804-.305 3.593-.833 5.12-1.912 1.554-1.098 2.749-2.669 3.75-4.356 1.026-1.727 2.034-3.57 2.17-5.616.135-2.031-.864-3.9-1.408-5.85-.554-1.986-.29-4.603-1.848-5.823-1.663-1.302-4.214.517-6.09-.392-1.884-.913-2.354-4.063-4.344-4.664z" fill="#48C76C" fill-opacity=".7"/><path fill-rule="evenodd" clip-rule="evenodd" d="M13.104 15.291c.91-.286 1.875-.149 2.812-.181.331.024.727-.088 1.001.155l.011.01a4.142 4.142 0 00-1.726 1.006 43.35 43.35 0 00-1 .005 2.907 2.907 0 00-1.949.836c-2.361 2.35-4.712 4.71-7.07 7.063 1.618 1.618 3.238 3.235 4.856 4.854.355-.35.709-.703 1.061-1.057a367.46 367.46 0 011.505 1.528c.085.082.168.167.25.251v12.407h2.593v.227c.01.249-.042.539.137.743.113.144.296.196.472.202H12.35c-.194.004-.406-.042-.53-.202-.18-.204-.128-.494-.138-.743.004-4.446.002-8.892 0-13.337-.423.415-.824.854-1.267 1.25a.545.545 0 01-.702.038c-.317-.25-.585-.555-.874-.836a374.466 374.466 0 00-4.836-4.848.836.836 0 01-.235-.397v-.159c.06-.276.293-.454.48-.644 2.37-2.366 4.737-4.735 7.107-7.101a4.159 4.159 0 011.75-1.07z" fill="#442C22"/><path fill-rule="evenodd" clip-rule="evenodd" d="M16.872 15.291c.91-.286 1.875-.149 2.811-.181.332.024.727-.088 1.001.155.192.16.19.424.201.651.032.96.418 1.902 1.068 2.609a4.357 4.357 0 003.704 1.37 4.115 4.115 0 002.405-1.17c.16-.167.368-.333.616-.287.415.034.663.573.405.906-1.105 1.262-2.85 1.917-4.516 1.72a5.512 5.512 0 01-3.665-1.966c-.66-.796-1.053-1.793-1.168-2.817-.589.003-1.177-.007-1.765.005a2.908 2.908 0 00-1.949.836c-2.361 2.35-4.712 4.71-7.07 7.063 1.618 1.618 3.238 3.235 4.856 4.854.553-.545 1.101-1.094 1.646-1.647-.002-.9-.005-1.8 0-2.7a.585.585 0 01.46-.594c.363-.092.736.23.708.602.005 5.822 0 11.646.002 17.468h16.976c0-5.665.002-11.33 0-16.994.007-.244-.03-.497.048-.733a.588.588 0 01.842-.272c.209.118.297.366.283.596v17.91a.615.615 0 01-.664.665H16.116c-.194.004-.405-.042-.53-.202-.18-.204-.128-.494-.138-.743.004-4.446.002-8.892 0-13.337-.423.415-.824.854-1.267 1.25a.546.546 0 01-.702.038c-.317-.25-.585-.555-.874-.836a374.787 374.787 0 00-4.836-4.848.836.836 0 01-.235-.397v-.159c.06-.276.293-.454.48-.644 2.37-2.366 4.737-4.735 7.107-7.101a4.16 4.16 0 011.75-1.07zm7.144.008c.133-.157.347-.195.544-.19 2.473.002 4.946 0 7.419 0 .778-.017 1.566.16 2.237.56.57.324 1.005.82 1.467 1.273 2.254 2.254 4.509 4.506 6.765 6.758.114.11.197.25.239.403v.152a.802.802 0 01-.2.372c-1.866 1.867-3.736 3.73-5.601 5.597-.12.12-.27.227-.447.227a.586.586 0 01-.61-.61c.002-.27.23-.445.401-.621 1.683-1.676 3.36-3.357 5.042-5.034-2.319-2.328-4.65-4.643-6.97-6.968a2.962 2.962 0 00-2.118-.935c-2.54-.004-5.082-.002-7.623 0-.173-.002-.362-.02-.495-.144a.589.589 0 01-.05-.84z" fill="#442C22"/><path fill-rule="evenodd" clip-rule="evenodd" d="M9.337 15.291c.91-.286 1.875-.149 2.812-.181.332.024.727-.088 1 .155l.012.01a4.142 4.142 0 00-1.726 1.006 43.362 43.362 0 00-1 .005 2.907 2.907 0 00-1.949.836c-2.361 2.35-4.712 4.71-7.071 7.063 1.619 1.618 3.239 3.235 4.857 4.854.355-.35.709-.703 1.061-1.057a433.03 433.03 0 011.505 1.528c.085.082.168.167.25.251v12.407h2.593v.227c.01.249-.042.539.138.743.112.144.294.196.471.202H8.581c-.193.004-.405-.042-.53-.202-.18-.204-.127-.494-.137-.743.004-4.446.002-8.892 0-13.337-.423.415-.824.854-1.267 1.25a.545.545 0 01-.702.038c-.317-.25-.585-.555-.874-.836a374.51 374.51 0 00-4.836-4.848.836.836 0 01-.235-.397v-.159c.059-.276.292-.454.48-.644 2.37-2.366 4.737-4.735 7.107-7.101a4.159 4.159 0 011.75-1.07z" fill="#442C22"/></svg>