<svg width="41" height="43" fill="none" xmlns="http://www.w3.org/2000/svg"><path fill-rule="evenodd" clip-rule="evenodd" d="M17.936 11.705c2.074.146 4.251-1.813 6.109-.862 1.885.966 1.643 3.987 3.077 5.567 1.459 1.61 4.911 1.486 5.278 3.648.397 2.334-3.211 3.634-3.647 5.962-.386 2.055 2.054 4.06 1.398 6.042-.62 1.87-2.938 2.485-4.572 3.541-1.562 1.008-3.038 2.36-4.874 2.56-1.818.2-3.593-.634-5.234-1.456-1.461-.731-2.216-2.623-3.786-3.06-2.668-.74-6.535 1.989-8.2-.267-1.537-2.084 2.886-4.656 2.65-7.255-.232-2.55-3.765-3.918-3.896-6.477-.123-2.379 1.617-4.536 3.24-6.246 1.608-1.693 3.674-3.134 5.962-3.446 2.244-.305 4.237 1.59 6.495 1.749z" fill="#48C76C" fill-opacity=".7"/><path d="M16.254 7.995h1.002c1.662.016 3.322.153 4.964.415.525.094 1.072.143 1.555.39a2.897 2.897 0 01.614 4.764c-.646.552-1.307 1.086-1.956 1.633-.15.131-.347.24-.553.194a.58.58 0 01-.465-.693c.029-.164.152-.286.274-.388.628-.52 1.255-1.04 1.88-1.564.424-.34.68-.882.647-1.428-.02-.779-.62-1.501-1.393-1.628-3.18-.6-6.452-.694-9.664-.304.845.72 1.63 1.506 2.45 2.253.213.198.428.406.699.522a1.716 1.716 0 001.747-.207c.433-.354.815-.764 1.242-1.125.333-.264.88-.003.898.42.042.355-.287.567-.508.785-.48.426-.917.934-1.52 1.19a2.874 2.874 0 01-2.982-.415c-1.214-1.052-2.297-2.262-3.619-3.185-.36.052-.732.13-1.033.349a1.757 1.757 0 00-.712 1.683c.056.413.28.793.597 1.06.658.558 1.33 1.1 1.987 1.659a.576.576 0 11-.742.881c-.667-.55-1.331-1.105-1.994-1.66a2.892 2.892 0 01.489-4.746c.54-.305 1.17-.35 1.768-.458 1.431-.232 2.88-.341 4.328-.397zm-9.976 4.287c.28-.115.639-.008.77.276.164.31-.03.732-.37.812-.766.228-1.542.422-2.306.656-1.1.376-1.895 1.477-1.906 2.642C2.343 22 2.222 27.33 2.102 32.66c-.023.274.17.55.442.604.355.056.717.038 1.073.089.313.05.528.396.445.7a.585.585 0 01-.646.436c-.51-.048-1.053.006-1.522-.237a1.738 1.738 0 01-.946-1.588c.117-5.241.239-10.482.357-15.723.004-.434.034-.871.154-1.29a4.029 4.029 0 012.659-2.76c.718-.21 1.44-.402 2.16-.609zm21.294.064c.292-.097.58.073.863.13.808.25 1.674.378 2.395.847a4.015 4.015 0 011.794 2.596c.092.425.087.863.098 1.295.116 5.148.235 10.296.35 15.444a1.737 1.737 0 01-.948 1.594c-.469.243-1.012.186-1.52.237-.268.043-.56-.094-.66-.354-.137-.308.061-.705.39-.776.377-.062.762-.035 1.138-.095a.576.576 0 00.445-.602c-.115-5.24-.238-10.482-.355-15.723-.002-.385-.034-.776-.165-1.141a2.864 2.864 0 00-1.806-1.791c-.69-.22-1.4-.374-2.085-.604-.447-.193-.399-.918.066-1.057z" fill="#442C22"/><path d="M14.4 14.74c.356-.116.76.196.733.572a5.164 5.164 0 01-1.639 3.597.574.574 0 01-.85-.103.59.59 0 01.108-.784 4.028 4.028 0 001.22-2.65c-.007-.274.15-.561.428-.632zm4.929-.006a.575.575 0 01.629.269c.082.133.078.296.096.447a3.976 3.976 0 001.153 2.507c.11.116.236.237.263.403a.586.586 0 01-.406.671.583.583 0 01-.577-.156c-.982-.935-1.588-2.27-1.597-3.632a.574.574 0 01.439-.51z" fill="#442C22"/><path d="M6.796 18.224a.57.57 0 01.613-.46.57.57 0 01.519.532c.012.248-.012.496-.017.744-.227 6.89-.46 13.781-.685 20.672a.574.574 0 00.396.592c3.216.832 6.539 1.283 9.863 1.227 3.008-.02 6.01-.442 8.914-1.223a.578.578 0 00.395-.599c-.232-7.093-.47-14.188-.706-21.282-.043-.319.197-.645.524-.663.343-.043.647.271.63.61.234 7.113.474 14.227.707 21.34.032.77-.515 1.519-1.26 1.717a38.584 38.584 0 01-5.074.99c-1.294.164-2.597.232-3.9.27h-1.58c-1.219-.05-2.437-.12-3.648-.275a43.671 43.671 0 01-5.12-.979 1.747 1.747 0 01-1.245-1.259c-.085-.33-.041-.673-.034-1.01l.676-20.332c.008-.204 0-.41.032-.612z" fill="#442C22"/><path d="M13.18 28.83c.306-.082.626-.06.933-.002 1.96.346 3.978.33 5.935-.022.784-.157 1.648.264 1.976 1a1.95 1.95 0 001.137 1.1c.695.244 1.203.942 1.203 1.684.002.997.003 1.993 0 2.99a1.83 1.83 0 01-.974 1.58c-.288.157-.617.199-.934.265-3.568.71-7.274.719-10.843.005-.332-.073-.682-.103-.985-.27a1.828 1.828 0 01-.972-1.578c-.004-.93.002-1.86-.002-2.79-.065-.77.388-1.558 1.111-1.848.37-.134.72-.346.958-.666.2-.245.28-.563.476-.81.245-.314.597-.539.981-.637zm.203 1.147c-.194.065-.317.24-.394.42a3.044 3.044 0 01-1.674 1.57c-.276.085-.507.334-.504.633-.005.97 0 1.939-.002 2.908-.02.318.209.632.527.687 3.724.812 7.62.813 11.345.001a.667.667 0 00.53-.685c-.001-.973.004-1.945-.002-2.916 0-.296-.228-.542-.5-.627a3.045 3.045 0 01-1.678-1.57c-.073-.164-.176-.328-.347-.4-.192-.1-.413-.06-.616-.025-2.04.355-4.14.35-6.178-.01-.167-.027-.345-.055-.507.014zm20.142-27.47h.09c.202.036.371.209.367.418.011.372.1.745.296 1.066a2.13 2.13 0 001.663 1.033c.163.013.353.005.474.135a.42.42 0 01-.02.614c-.154.137-.375.096-.563.126-.917.107-1.703.872-1.822 1.779-.037.195.013.424-.132.584a.431.431 0 01-.64 0c-.141-.158-.095-.383-.129-.575-.116-.909-.901-1.682-1.822-1.788-.18-.029-.385.009-.54-.107-.093-.063-.137-.17-.17-.27v-.098c.021-.192.174-.37.377-.381.25-.02.504-.034.741-.123a2.124 2.124 0 001.4-1.612c.034-.166.024-.337.06-.502.041-.168.203-.277.37-.3zm-.984 2.95c.413.252.765.599 1.018 1.009.254-.41.605-.76 1.021-1.01a3.061 3.061 0 01-1.02-1.008 3.11 3.11 0 01-1.02 1.009zM39.046.285h.09c.184.036.353.18.364.373.019.297 0 .594.007.891.241.001.483 0 .724-.001.123.001.256 0 .361.071a.42.42 0 01-.228.77c-.286.01-.572 0-.857.003-.005.296.01.592-.006.887a.421.421 0 01-.462.374.418.418 0 01-.379-.375c-.016-.295 0-.59-.005-.886-.286-.003-.571.007-.856-.002a.424.424 0 01-.408-.314.418.418 0 01.363-.52c.3-.018.6 0 .9-.007.006-.297-.011-.595.007-.893.013-.198.192-.349.385-.37zM37.497 9.11c.28-.12.619.137.574.436-.018.315-.436.494-.68.29-.263-.18-.198-.627.106-.727zM28.85 1.346c.293-.123.64.165.567.472-.045.308-.468.455-.697.24-.244-.19-.165-.617.13-.712z" fill="#442C22"/></svg>