<svg width="36" height="44" fill="none" xmlns="http://www.w3.org/2000/svg"><path fill-rule="evenodd" clip-rule="evenodd" d="M16.851 15.097c1.85.14 3.068 1.969 4.772 2.691 1.794.761 3.818.747 5.53 1.677 2.181 1.185 5.315 2.075 5.813 4.489.503 2.437-2.628 4.163-3.55 6.477-.768 1.923.11 4.546-1.412 5.963-1.573 1.465-4.276.415-6.284 1.204-1.83.72-2.907 3.359-4.869 3.18-2.029-.184-2.512-3.424-4.456-4.029-2.425-.755-5.282 1.483-7.524.298-2.056-1.085-3.643-3.73-3.283-6.007.404-2.555 4.036-3.388 5.138-5.734.8-1.706-.805-3.954.17-5.57.958-1.587 3.128-1.908 4.82-2.697 1.678-.782 3.285-2.082 5.135-1.942z" fill="#48C76C" fill-opacity=".7"/><path d="M21.018 6.468l.076-.048c.19-.078.425-.02.533.158.207.309.482.578.818.745a2.13 2.13 0 001.958-.011c.145-.077.302-.185.473-.138a.42.42 0 01.31.53c-.057.198-.265.28-.409.407-.72.578-.977 1.645-.595 2.475.073.185.237.352.2.565a.431.431 0 01-.542.34c-.204-.058-.285-.273-.416-.417-.582-.707-1.658-.944-2.494-.543-.168.071-.321.212-.514.197-.112-.004-.206-.07-.288-.139l-.052-.082c-.085-.174-.05-.406.116-.523.2-.15.409-.297.562-.5.478-.58.609-1.419.327-2.11-.06-.157-.16-.297-.218-.456-.054-.164.025-.343.155-.45zm.738 3.02c.483-.006.966.1 1.399.313a3.055 3.055 0 01.327-1.398 3.061 3.061 0 01-1.401-.31c.002.482-.11.962-.325 1.396zM9.39 8.138l.077-.048c.174-.068.394-.035.506.122.174.241.317.502.48.75.205-.127.409-.257.613-.387.104-.064.216-.136.344-.131a.42.42 0 01.216.773c-.237.16-.484.304-.724.46.153.252.324.494.467.752a.421.421 0 01-.191.563.418.418 0 01-.52-.115c-.171-.242-.315-.5-.477-.747-.243.149-.48.31-.726.454a.424.424 0 01-.512-.049.418.418 0 01.03-.633c.245-.175.508-.32.76-.486-.154-.255-.328-.498-.47-.759-.096-.175-.025-.398.127-.52zm18.505 1.803c.174-.25.598-.213.72.063.152.277-.107.651-.422.609-.319-.013-.501-.426-.298-.672zM16.442 7.975c.183-.26.63-.201.732.097.126.285-.154.635-.462.574-.308-.031-.468-.434-.27-.671zM5.56 14.554a4.783 4.783 0 013.27-1.39c1.285-.009 2.57.002 3.855-.005.182.001.385-.003.534.12.215.155.228.44.296.673.43 1.734 1.931 3.123 3.674 3.482 1.607.356 3.357-.222 4.476-1.42.266-.334.855-.232.985.176.133.323-.107.618-.338.816a6.032 6.032 0 01-3.593 1.662c-1.45.147-2.94-.284-4.11-1.15a5.995 5.995 0 01-2.208-3.203c-1.15.005-2.299 0-3.447.003a3.647 3.647 0 00-3.569 2.878 38185.86 38185.86 0 00-3.329 15.397c-.04.3-.314.555-.624.521-.27-.01-.475-.234-.537-.485v-.19c1.138-5.172 2.239-10.353 3.367-15.528a4.797 4.797 0 011.298-2.357z" fill="#442C22"/><path d="M22.8 13.348c.258-.088.517-.203.796-.187h3.731a4.84 4.84 0 011.898.372 4.804 4.804 0 012.829 3.395c1.18 5.453 2.361 10.906 3.536 16.36v.38a1.856 1.856 0 01-1.098 1.418c.094.478.205.982.045 1.46a1.984 1.984 0 01-1.526 1.373c-.809.14-1.618.28-2.43.41a.576.576 0 01-.67-.464.573.573 0 01.455-.665c.794-.148 1.595-.266 2.39-.412a.831.831 0 00.644-.502c.13-.32.002-.66-.047-.982-1.086.178-2.171.359-3.257.536-.192.037-.409.014-.555-.127a.582.582 0 01-.041-.823c.113-.133.292-.175.456-.203 1.318-.214 2.635-.431 3.951-.65.261-.032.496-.242.517-.51.004-.254-.078-.498-.126-.743-1.12-5.183-2.24-10.364-3.362-15.547a3.65 3.65 0 00-3.486-2.916c-1.195-.012-2.39.002-3.585-.007a1.44 1.44 0 00-.46.05 15.848 15.848 0 01-7.736.697c-.385-.029-.638-.486-.456-.825.12-.272.446-.373.72-.305a14.71 14.71 0 006.867-.583zM8.77 21.899a.582.582 0 01.764.201c.135.216.074.48.075.718-.216 5.647-.43 11.294-.643 16.941-.036.456.215.92.628 1.12a19.67 19.67 0 009.87 1.919 19.605 19.605 0 007.092-1.843c.157-.074.33-.152.508-.107a.578.578 0 01.13 1.086 20.78 20.78 0 01-9.223 2.064 20.842 20.842 0 01-8.876-2.073 2.3 2.3 0 01-1.234-1.567c-.091-.375-.045-.764-.035-1.145.037-1.03.084-2.06.114-3.09-1.66-.27-3.32-.547-4.979-.82-.042.24-.11.48-.107.727a.82.82 0 00.675.752c.815.149 1.635.266 2.448.423.385.08.565.593.32.898-.151.223-.444.273-.69.21-.802-.144-1.608-.262-2.407-.417-.918-.204-1.597-1.134-1.502-2.07.053-.437.151-.866.23-1.298a.568.568 0 01.522-.464c.183.004.364.043.545.07 1.665.268 3.328.56 4.995.817.155-4.177.315-8.354.474-12.53a.587.587 0 01.307-.522z" fill="#442C22"/><path d="M26.691 22.485c-.045-.33.23-.66.566-.654a.58.58 0 01.59.578c.205 5.331.404 10.663.608 15.995.02.223-.074.466-.279.575a23.262 23.262 0 01-17.365 1.078.579.579 0 01-.332-.803c.128-.275.475-.392.751-.276a22.124 22.124 0 0011.41.652 22.535 22.535 0 004.642-1.508c-.191-5.212-.395-10.425-.59-15.637z" fill="#442C22"/></svg>