<svg width="54" height="69" fill="none" xmlns="http://www.w3.org/2000/svg"><path fill-rule="evenodd" clip-rule="evenodd" d="M24.835 23.497c2.877.217 4.774 3.064 7.426 4.189 2.793 1.184 5.943 1.161 8.606 2.609 3.396 1.845 8.273 3.23 9.049 6.986.782 3.794-4.09 6.48-5.527 10.081-1.194 2.993.172 7.076-2.196 9.281-2.449 2.281-6.655.646-9.78 1.874-2.848 1.12-4.526 5.228-7.578 4.95-3.158-.287-3.91-5.329-6.935-6.27-3.774-1.176-8.222 2.307-11.712.463C2.99 55.97.52 51.856 1.08 48.311c.628-3.978 6.281-5.273 7.995-8.924 1.247-2.655-1.252-6.156.264-8.669 1.492-2.471 4.87-2.971 7.502-4.198 2.613-1.218 5.113-3.24 7.994-3.023z" fill="#48C76C" fill-opacity=".7"/><path d="M31.319 10.066l.119-.074c.296-.12.662-.033.83.245.322.482.749.9 1.272 1.16a3.315 3.315 0 003.048-.017c.226-.119.47-.287.736-.215.362.07.599.476.483.825-.09.309-.414.438-.637.633-1.12.9-1.521 2.56-.927 3.853.114.288.37.549.312.88-.052.38-.478.648-.843.529-.318-.09-.443-.425-.648-.65-.905-1.1-2.58-1.47-3.881-.845-.261.111-.5.33-.8.307-.175-.006-.32-.11-.45-.216l-.08-.128c-.131-.271-.076-.632.18-.815.313-.234.637-.462.875-.777.744-.904.948-2.208.51-3.283-.095-.246-.249-.463-.34-.71-.083-.257.039-.534.24-.702zm1.148 4.702a4.809 4.809 0 012.178.485 4.757 4.757 0 01.509-2.175 4.765 4.765 0 01-2.18-.482 4.84 4.84 0 01-.507 2.172zm-19.245-2.102l.12-.075c.27-.106.613-.055.787.19.27.375.494.782.748 1.168.318-.199.636-.4.953-.602.163-.1.336-.213.535-.205.311 0 .596.246.635.554a.659.659 0 01-.298.65c-.368.248-.753.472-1.127.714.238.393.504.77.727 1.172.167.306.02.728-.298.877a.65.65 0 01-.81-.18c-.265-.376-.49-.778-.741-1.163-.379.232-.747.481-1.13.706a.66.66 0 01-.798-.075c-.286-.253-.268-.76.049-.986.38-.272.79-.499 1.18-.755-.239-.397-.51-.775-.731-1.182-.148-.272-.038-.62.2-.808zm28.801 2.806c.27-.39.93-.332 1.119.098.237.43-.166 1.014-.656.948-.496-.02-.78-.663-.463-1.046zm-17.825-3.06c.284-.405.98-.313 1.138.152.197.443-.24.987-.718.893-.48-.049-.73-.676-.42-1.045zM7.262 22.652a7.445 7.445 0 015.09-2.163c2-.014 3.999.002 5.998-.008.284.002.6-.005.832.187.334.242.355.684.46 1.048.67 2.698 3.006 4.86 5.718 5.42 2.502.553 5.225-.347 6.966-2.211.415-.52 1.331-.36 1.534.274.208.502-.167.962-.526 1.27-1.506 1.453-3.504 2.392-5.592 2.587-2.257.228-4.577-.443-6.396-1.79a9.331 9.331 0 01-3.437-4.985c-1.79.006-3.578-.002-5.366.004a5.677 5.677 0 00-5.554 4.48C5.26 34.752 3.533 42.74 1.808 50.727c-.061.467-.489.865-.972.812-.42-.017-.739-.365-.836-.755v-.297c1.772-8.049 3.485-16.113 5.24-24.166a7.465 7.465 0 012.022-3.669z" fill="#442C22"/><path d="M34.094 20.776c.402-.137.803-.316 1.238-.292h5.807a7.533 7.533 0 012.954.58c2.212.907 3.907 2.946 4.403 5.284C50.334 34.834 52.17 43.32 54 51.81v.592a2.888 2.888 0 01-1.71 2.205c.147.745.319 1.53.07 2.274a3.088 3.088 0 01-2.374 2.136c-1.26.219-2.519.437-3.781.638a.897.897 0 01-1.043-.722c-.096-.462.237-.961.706-1.035 1.236-.23 2.483-.414 3.72-.642.439-.068.839-.363 1.002-.78.204-.497.004-1.029-.073-1.528-1.69.277-3.379.557-5.068.834-.3.058-.636.02-.864-.198-.371-.314-.402-.932-.065-1.281.177-.208.455-.272.711-.315 2.05-.335 4.101-.672 6.15-1.013.405-.049.77-.377.804-.794.006-.394-.121-.774-.196-1.156-1.745-8.066-3.488-16.13-5.234-24.197a5.68 5.68 0 00-5.424-4.538c-1.86-.018-3.72.003-5.58-.011-.24 0-.486.002-.716.079a24.665 24.665 0 01-12.04 1.084c-.599-.046-.993-.756-.71-1.285.187-.423.694-.58 1.12-.475a22.88 22.88 0 0010.689-.906zM12.259 34.084c.398-.227.951-.079 1.187.314.211.335.116.746.117 1.117-.336 8.789-.668 17.578-1 26.367-.056.708.334 1.431.977 1.742a30.614 30.614 0 0015.362 2.986 30.513 30.513 0 0011.037-2.868c.245-.115.514-.236.79-.165a.905.905 0 01.715.827.9.9 0 01-.51.862 32.344 32.344 0 01-14.356 3.213 32.44 32.44 0 01-13.815-3.228 3.579 3.579 0 01-1.92-2.438c-.142-.584-.07-1.189-.055-1.782.057-1.603.13-3.207.178-4.81-2.584-.42-5.166-.85-7.75-1.275-.066.374-.171.748-.167 1.132.025.571.486 1.08 1.052 1.17 1.267.23 2.545.413 3.81.659.598.123.879.922.497 1.397-.235.347-.69.424-1.074.327-1.247-.224-2.502-.408-3.746-.65-1.428-.318-2.485-1.765-2.337-3.223.082-.678.235-1.347.357-2.02a.884.884 0 01.813-.721c.285.007.566.067.847.11 2.593.417 5.18.871 7.775 1.27.241-6.5.491-13.001.738-19.502.003-.33.176-.66.478-.812z" fill="#442C22"/><path d="M40.15 34.996c-.07-.514.356-1.026.88-1.018.49-.025.926.413.917.9.32 8.297.63 16.596.947 24.893.032.348-.115.727-.433.896a36.203 36.203 0 01-27.027 1.678c-.504-.151-.768-.787-.516-1.25.199-.428.739-.61 1.168-.43a34.434 34.434 0 0017.759 1.015 35.078 35.078 0 007.224-2.346c-.298-8.112-.615-16.226-.92-24.338z" fill="#442C22"/></svg>