<svg width="40" height="29" fill="none" xmlns="http://www.w3.org/2000/svg"><path fill-rule="evenodd" clip-rule="evenodd" d="M17.436.576c-1.84-.544-3.907.425-5.465 1.59-1.516 1.133-1.99 3.233-3.094 4.808-1.004 1.433-2.344 2.545-3.152 4.108-.892 1.725-2.134 3.568-1.82 5.505.317 1.956 2.605 2.856 3.463 4.623.913 1.882.154 4.659 1.697 6.01 1.51 1.324 3.846.439 5.807.567 1.735.112 3.44.431 5.156.147 1.765-.292 3.515-.797 5.009-1.828 1.52-1.05 2.69-2.552 3.67-4.165 1.003-1.651 1.989-3.414 2.122-5.37.132-1.942-.845-3.728-1.377-5.593-.542-1.9-.285-4.402-1.808-5.567-1.627-1.246-4.123.494-5.958-.375-1.844-.874-2.303-3.885-4.25-4.46z" fill="#48C76C" fill-opacity=".7"/><path d="M36.023 19.896l.022.088c.015.205-.113.41-.316.457-.358.1-.699.278-.963.545a2.13 2.13 0 00-.599 1.865c.028.161.082.344-.016.492a.42.42 0 01-.6.13c-.17-.116-.184-.34-.26-.516-.325-.864-1.258-1.44-2.167-1.337-.198.013-.408.116-.598.015a.431.431 0 01-.155-.62c.119-.177.348-.186.526-.266.853-.333 1.414-1.282 1.293-2.2-.016-.183-.102-.373-.028-.551.04-.105.132-.174.222-.23l.094-.024c.192-.026.401.08.461.273.081.237.155.481.3.69a2.124 2.124 0 001.903.967c.169-.008.332-.059.502-.065.173 0 .318.13.38.287zm-3.1-.24a3.09 3.09 0 01-.732 1.233c.46.147.883.403 1.226.746a3.06 3.06 0 01.731-1.235 3.11 3.11 0 01-1.225-.743zm6.595 5.058l.022.088c.01.186-.09.385-.274.442-.283.09-.576.145-.863.223.058.235.118.469.177.703.029.12.063.248.019.368a.42.42 0 01-.803-.035c-.078-.275-.138-.555-.21-.831-.288.066-.572.153-.862.209a.421.421 0 01-.475-.357.418.418 0 01.272-.459c.282-.087.572-.143.858-.22-.066-.278-.145-.552-.205-.831a.424.424 0 01.205-.472.418.418 0 01.593.227c.09.286.146.582.224.872.29-.067.576-.156.868-.21.196-.036.386.1.454.283zm-8.937.636c.184.244.017.635-.284.664-.31.06-.585-.304-.447-.59.111-.299.56-.343.731-.073zm5.435-10.27c.19.254-.005.66-.32.663-.31.032-.555-.343-.402-.617.126-.283.559-.31.722-.047z" fill="#442C22"/><path d="M20.218 19.678a.78.78 0 01-.533-.08l-2.238-1.175c-.05-.028-.112-.044-.164-.015-.474.247-.946.495-1.419.743h0l-.852.447a.774.774 0 01-.533.08m5.74 0l.02.098s0 0 0 0m-.02-.098l.021.097s0 0 0 0m-.022-.097c.29-.06.534-.3.592-.59.035-.142.008-.287-.017-.427l-.005-.027-.14-.808h0v-.001h0v-.001h0l-.266-1.551a.157.157 0 01.05-.15l1.81-1.761a.772.772 0 00.258-.634l-10.274-.402m8.013 6.45a.879.879 0 01-.601-.09m.601.09a.872.872 0 00.669-.667m-1.27.577s0 0 0 0l.047-.088-.048.088s0 0 0 0zm0 0L17.4 18.512l-.003-.002h0a.13.13 0 00-.045-.017c-.011-.001-.017 0-.021.003l-.002.001h0a681.673 681.673 0 00-2.27 1.189m0 0h.001l-.048-.088.047.088s0 0 0 0zm0 0a.874.874 0 01-.6.09m0 0s0 0 0 0l.02-.098m-.02.098h-.001l.021-.098m-.02.098a.876.876 0 01-.614-.492m.634.394a.776.776 0 01-.542-.435m0 0l-.091.042s0 0 0 0m.09-.042a.767.767 0 01-.055-.45m.056.45l-.092.041s0 0 0 0m0 0a.867.867 0 01-.062-.508h0l.098.017m0 0l-.098-.017m.098.017l.022-.125h0l.4-2.325.005-.031c.008-.046.017-.094-.005-.138-.018-.035-.048-.063-.076-.09a895.14 895.14 0 00-.796-.773h0l-1.02-.993a.767.767 0 01-.1-.94l1.472 5.398m0 0l.021-.126a2683.635 2683.635 0 01.406-2.357l.001-.01a.388.388 0 00.005-.034.064.064 0 00-.002-.03.18.18 0 00-.03-.038l-.027-.025a1810.524 1810.524 0 00-1.816-1.766v-.001a.867.867 0 01-.115-1.063m1.557 5.45l-1.557-5.45m0 0a.863.863 0 01.573-.392h.004c.438-.065.88-.129 1.321-.192.419-.061.837-.121 1.253-.183h.003a.062.062 0 00.05-.034l.002-.004h0a1029.316 1029.316 0 001.076-2.175h0l.023-.046a1.21 1.21 0 01.126-.218.87.87 0 011.324-.07 1.113 1.113 0 01.193.305l.521 1.055.522 1.055.024.049a.374.374 0 00.038.067c.004.005.012.01.035.015a.55.55 0 00.044.007h.006l.05.007.813.118 1.647.24-.015.099m0 0l.014-.1a.868.868 0 01.437 1.506l-.904.879-.905.88-.003.002h0a.058.058 0 00-.018.054l.001.006h0l.266 1.552.14.809.005.03c.025.136.055.3.016.462m.951-6.08l-1.646-.24h0-.001 0l-.814-.118m2.461.358l-2.461-.358m1.51 6.438v-.002l-.098-.02.097.024v-.002zm-1.51-6.438l-.045-.006c-.056-.007-.114-.014-.152-.059a.528.528 0 01-.054-.097h0l-.019-.037.27.2zm-2.078-2.11h0s-.004 0-.01.007a.152.152 0 00-.019.033v.001h0a1829.495 1829.495 0 01-1.106 2.235.885.885 0 01-.67.524m1.805-2.8l-1.819 2.7m1.819-2.7l.007-.004c.026-.011.06.004.068.024h0l.003.007.56 1.13.578 1.168M17.32 10.56l.168-.018.559 1.13h0c.193.39.385.78.579 1.168m-3.11.52l-.015-.1m.015.1s0 0 0 0l-.015-.1m.015.1c-.454.067-.909.132-1.363.198-.403.058-.806.116-1.207.176h-.001 0c-.01.001-.025.01-.033.035-.007.025 0 .041.008.048l.005.004h0l.945.92.888.863m.743-2.344c-.454.068-.908.133-1.362.199l-1.207.175c-.116.016-.166.182-.077.258l.944.92h.002l.888.864m.069-.072s0 0 0 0l-.07.072m.07-.072s0 0 0 0l-.07.072m.07-.072a.875.875 0 01.272.568m-.341-.496a.781.781 0 01.241.504m0 0l.1-.009s0 0 0 0m-.1.009a1.13 1.13 0 01-.026.293h0a5.772 5.772 0 00-.012.07l-.16.931h0v.001h0c-.083.476-.164.951-.245 1.427-.02.084.05.168.133.177.047.007.09-.016.13-.038l.032-.017m.148-2.844l.1-.008s0 0 0 0m0 0c.01.113-.011.227-.029.324-.004.022-.008.044-.01.064h0l-.16.931-.246 1.428v.005h0c-.002.008-.001.02.01.033.01.014.024.021.036.023h.003c.004 0 .012 0 .03-.008a.4.4 0 00.033-.016l.005-.003.035-.018m0 0h-.001l.046.09m-.045-.09h.002l.043.09m-.045-.09l.588-.308 1.557-.817m-2.1 1.214l.589-.308 1.56-.819m0 0l-.052-.085.003-.002m.05.087a.79.79 0 01.757-.04c.432.225.863.452 1.295.679h.001l1.004.527c.104.061.248-.044.22-.16-.08-.476-.162-.95-.244-1.425l-.188-1.097m-2.846 1.516l-.046-.088-.003.001m0 0a.89.89 0 01.852-.042h0l1.297.68 1.004.526.005.003h0c.01.005.028.007.05-.009.021-.015.024-.033.022-.043l-.001-.006h0c-.08-.475-.162-.95-.244-1.424l-.188-1.096m0 0s0 0 0 0l.098-.018m-.098.018s0 0 0 0l.098-.018m-.098.018a.872.872 0 01.12-.627m-.022.61a.77.77 0 01.107-.556m0 0l-.085-.053s0 0 0 0m.085.053a1.11 1.11 0 01.182-.206l.046-.045.638-.62h0l.001-.001.002-.001v-.001h0l1.088-1.06c.088-.075.041-.24-.074-.257-.498-.074-.997-.146-1.495-.218h0l-1.075-.156a.774.774 0 01-.571-.42m1.258 2.985l-.084-.054s0 0 0 0m0 0c.056-.09.134-.164.2-.228l.042-.04h0l.64-.623 1.09-1.06.004-.004h0c.008-.007.015-.023.008-.047-.007-.025-.022-.035-.032-.036h0c-.498-.074-.996-.146-1.494-.218l-1.076-.156h0a.874.874 0 01-.646-.475m0 0s0 0 0 0l.09-.045m-.09.045s0 0 0 0l.09-.045m2.45-2.068a.415.415 0 00.067-.392.408.408 0 00-.727-.085l-.12.163c-.067.093-.136.187-.202.282h0a.406.406 0 00.651.483h0l.002-.002.21-.285.119-.164zm0 0h-.001l-.079-.06m.08.06v-.001l-.08-.06m0 0a.314.314 0 00.053-.298l-.382.747c.07-.092.139-.187.207-.281l.122-.168zm-3.244 9.68h0c.005.113.004.23.004.345v.21a.409.409 0 11-.815.023v-.543s0 0 0 0h.1l.711-.035zm0 0v-.004m0 .004v-.004m0 0a.394.394 0 00-.192-.3m.192.3l-.192-.3m0 0a.396.396 0 00-.352-.036l.352.036zm-.936-9.749c.033-.068.066-.136.112-.197l-3.919 2.89 1.32-.191h.001l1.254-.183a.162.162 0 00.13-.092l.66-1.333v-.002l.416-.84.026-.052zm-3.035.386h0l.001.002c.081.117.167.233.25.347l.097.132a.408.408 0 00.658-.478l-.081.06.081-.059a42.11 42.11 0 00-.289-.397l-.036-.05a.41.41 0 00-.445-.159.398.398 0 00-.266.241.39.39 0 00.03.361zm-1.09 6.47h0a.406.406 0 00-.254-.769c-.143.044-.286.09-.427.137l-.114.037a.414.414 0 00-.283.352h0v.065h-.001v.01c.023.238.271.423.512.352h.001c.189-.059.378-.119.566-.184zm10.777-.23h0v-.01a.413.413 0 00-.275-.35c-.176-.06-.354-.118-.531-.174a.406.406 0 00-.262.769c.025.01.052.018.075.025l.012.004.055.018h.003l.152.05c.092.031.188.063.282.088h.003a.41.41 0 00.486-.368h0v-.052z" fill="#442C22" stroke="#442C22" stroke-width=".2"/><path d="M9.216.605c.898-.283 1.85-.147 2.775-.18.328.025.718-.086.988.154.19.158.188.42.199.643A4.036 4.036 0 0014.232 3.8c.91 1 2.314 1.523 3.656 1.353a4.06 4.06 0 002.373-1.156c.158-.164.364-.328.608-.283.41.034.655.566.4.895-1.09 1.247-2.814 1.893-4.458 1.7a5.44 5.44 0 01-3.617-1.943c-.65-.786-1.039-1.771-1.153-2.782-.58.003-1.161-.008-1.742.004a2.868 2.868 0 00-1.923.826c-2.33 2.322-4.65 4.653-6.98 6.977 1.599 1.598 3.197 3.195 4.794 4.794.546-.538 1.087-1.08 1.625-1.627-.002-.889-.005-1.778 0-2.667a.578.578 0 01.454-.587c.358-.09.727.228.7.595.004 5.751 0 11.503.001 17.254h16.756V10.366c.006-.24-.03-.49.047-.724a.581.581 0 01.831-.268c.206.117.293.361.28.588-.002 5.897 0 11.795-.001 17.692a.608.608 0 01-.655.656H8.47c-.191.004-.4-.042-.523-.2-.178-.201-.126-.488-.136-.734.004-4.391.002-8.783.001-13.173-.419.41-.815.843-1.25 1.234a.538.538 0 01-.694.038c-.313-.247-.578-.548-.863-.825A370.013 370.013 0 00.232 9.86.826.826 0 010 9.468v-.156c.058-.273.289-.448.474-.637C2.813 6.338 5.15 4 7.488 1.662A4.104 4.104 0 019.216.605z" fill="#442C22"/><path d="M16.268.613c.131-.156.343-.194.537-.188 2.44.002 4.881 0 7.322 0 .768-.016 1.546.158 2.209.553.562.32.991.81 1.447 1.258 2.225 2.226 4.45 4.45 6.677 6.674a.867.867 0 01.236.399v.15a.791.791 0 01-.198.367c-1.841 1.844-3.686 3.684-5.527 5.529-.119.117-.267.224-.44.224a.578.578 0 01-.603-.603c.001-.266.227-.439.395-.613 1.661-1.656 3.317-3.316 4.977-4.973-2.289-2.298-4.589-4.585-6.879-6.882a2.922 2.922 0 00-2.091-.924c-2.508-.004-5.016-.002-7.524 0-.17-.002-.358-.019-.489-.141a.582.582 0 01-.05-.83z" fill="#442C22"/></svg>