<svg width="171" height="60" fill="none" xmlns="http://www.w3.org/2000/svg"><path fill-rule="evenodd" clip-rule="evenodd" d="M134.719 11.037c0 2.334-1.362 3.093-3.044 2.943-1.681-.15-3.052-.909-3.052-2.943a2.76 2.76 0 01.123-1.13c.119-.364.312-.702.569-.992.257-.291.571-.53.925-.7a3.023 3.023 0 011.134-.296 3.31 3.31 0 011.275.196c.407.148.778.375 1.091.667.314.292.562.642.73 1.03.168.388.253.805.249 1.225zm-79.956 5.218s-.302 2.45-.707 5.252c-.207 1.667-.431 3.5-.664 5.001-.224 1.843-.449 3.635-.655 4.735l-.708 5.244h13.046s.621-3.718.57-3.727c-.863-.141-6.898-.883-7.545-.833 0-.417.13-1.46.327-3.018.199-1.559.466-2.934.733-5.135.268-2.06.526-3.543.733-5.244.199-1.3.345-2.242.328-2.242-.914.075-5.458-.233-5.458-.033zm28.572 18.264c0 .266 1.725-8.095 2.026-9.545.345-1.05 2.035-9.279 2.035-9.412 0-.133 5.553-.258 5.553-.258s.862 1.809 1.725 3.26c.862 1.591 1.724 3.459 1.724 3.259 0-.2.862-1.793 1.725-3.66.862-1.867 1.724-3.668 1.724-3.668l4.803-.667 3.673 20.357-4.967 1.125s-.586-3.567-1.172-6.452c-.587-2.884-1.182-5.718-1.182-5.768a31.63 31.63 0 01-1.491 3.117c-.742 1.668-1.483 3.118-1.483 3.118l-3.837.15s-.862-1.926-1.656-3.434c-.862-2.018-1.664-3.126-1.664-3.435 0 .55-.603 2.684-1.207 5.769-.604 3.084-1.216 6.452-1.216 6.452l-5.113-.308zm55.995.241s0-1.475-.06-5.368c0-1.926 0-3.126-.06-5.102 0-1.459-.043-2.76-.061-4.86 0-3.01-.069-5.368-.069-5.368h5.019l.094 7.752.164.1a18.632 18.632 0 013.113-4.168c1.725-1.717 3.604-3.926 3.604-3.926l3.268 2.918-6.501 7.844 6.898 7.97-3.88 2.792-6.045-7.411-.155.05s.155 2.034.155 3.551v3.385l-5.484-.159zm-10.698-16.729c.002.755.048 1.51.138 2.26.129 1.192.302 3.884.474 5.393s.336 3.993.466 5.635c.129 1.259.215 2.751.215 2.751l5.001.317s0-2.218.061-4.91c0-1.667.043-2.976.06-4.327 0-1.875.043-3.376.06-4.318 0-2.284.069-4.651.069-4.651s-6.622.208-6.622.541c.06.434.086.872.078 1.31z" fill="#442C22"/><path fill-rule="evenodd" clip-rule="evenodd" d="M67.472 24.49c-.276-1.775.862-2.876 2.586-2.61.184 1.348.495 2.677.932 3.969-1.38.892-3.242.442-3.518-1.342v-.017zm7.01-2.367c-.19-2.11-.207-2.776-.371-4.777-.164-2-.267-2.818-1.56-4.051a6.738 6.738 0 00-4.157-1.526c-1.839.14-3.615.713-5.173 1.667a31.634 31.634 0 001.405 3.018c1.483-.75 2.846-1.234 3.854-.975 1.01.258 1.466.575 1.596 3.076a6.135 6.135 0 00-3.063.2 5.958 5.958 0 00-2.55 1.65 6.288 6.288 0 00-1.236 3.52 6.264 6.264 0 00.985 3.591c2.328 3.193 5.924 2.5 7.968.292 1.18.992 2 1.184 3.81.975.509-.908.97-1.84 1.38-2.792-2.12-.567-2.664-2.101-2.888-3.868zm41.335 7.145c-.431-2.067 1.043-3.71 2.819-3.243a19.467 19.467 0 001.216 5.069 2.789 2.789 0 01-2.513.11 2.69 2.69 0 01-1.008-.787 2.577 2.577 0 01-.514-1.15zm8.226-.125c-1.613-5.677-.104-9.387-2.096-13.338-2.112-4.168-9.484-3.018-11.631-.634l1.241 3.643c1.992-1.492 4.553-1.75 5.657-1.058 1.103.692 1.172 1.534 1.172 4.668-5.018-.55-7.863 2.41-7.243 7.41.863 6.961 8.39 5.711 10.08 3.694 1.613 1.667 4.311 1.284 4.311 1.284l1.173-3.127a3.438 3.438 0 01-1.717-.867 3.257 3.257 0 01-.947-1.633v-.042zm36.679-.077c-.267-2.292 1.535-2.926 3.449-3.026.021 1.703.186 3.4.491 5.077-1.879.542-3.716 0-3.957-2.05h.017zm8.114-1.208c.276-4.769 1.655-9.487-.216-11.963-2.587-3.434-8.76-2.5-11.571-.308l1.638 3.618c.862-.342 3.621-1.8 5.174-.684 1.552 1.117 1 2.834.646 4.56-2.785-.534-9.191 0-8.622 6.402.483 5.194 5.311 7.37 9.209 4.318a4.25 4.25 0 001.58 1.461 4.43 4.43 0 002.119.523L171 32.926c-2.044-1.2-2.302-2.584-2.164-5.068z" fill="#442C22"/><path d="M54.39 53.085V46.62h5.774v6.465H58.87V47.67h-3.19v5.415h-1.29zm11.013.177c-1 0-1.824-.313-2.475-.94-.642-.628-.962-1.447-.962-2.456 0-1 .32-1.819.962-2.455.642-.646 1.444-.969 2.406-.969.962 0 1.723.305 2.282.914.569.6.853 1.414.853 2.442 0 .19-.005.336-.014.436h-5.17c.019.555.234 1.023.647 1.405.412.373.902.56 1.47.56.817 0 1.449-.328 1.898-.983l.907.723c-.687.882-1.622 1.323-2.804 1.323zm-2.118-3.983h3.878c-.019-.536-.184-.973-.495-1.309-.312-.346-.757-.518-1.334-.518-.55 0-1.017.177-1.402.532a1.95 1.95 0 00-.647 1.295zm10.797 3.806v-2.523a6.889 6.889 0 01-1.815.218c-1.485 0-2.228-.682-2.228-2.046V46.62h1.265v1.828c0 .5.11.84.33 1.023.22.181.56.272 1.018.272.458 0 .935-.068 1.43-.204v-2.92h1.292v6.466h-1.292zm5.406.164c-.275 0-.546-.037-.811-.11a2.926 2.926 0 01-.757-.327 1.629 1.629 0 01-.577-.613 1.956 1.956 0 01-.22-.942c0-.372.087-.695.261-.968.183-.282.413-.496.688-.641.275-.155.623-.273 1.044-.355.431-.09.835-.15 1.21-.177.385-.027.83-.041 1.334-.041v-.177c0-.464-.147-.814-.44-1.05-.284-.246-.674-.369-1.169-.369-.733 0-1.352.25-1.856.75l-.687-.818c.678-.646 1.567-.969 2.667-.969.898 0 1.577.237 2.035.71.458.463.687 1.073.687 1.827v2.824c0 .564.032.991.097 1.282h-1.169a4.009 4.009 0 01-.11-.927h-.041c-.486.727-1.215 1.09-2.186 1.09zm.288-1.01c.587 0 1.045-.172 1.375-.518.34-.355.509-.814.509-1.378v-.34h-.316c-1.934 0-2.901.409-2.901 1.227 0 .355.128.614.385.778.256.154.573.231.948.231zm6.654.846V47.67h-2.213v-1.05h5.72v1.05h-2.214v5.415h-1.292zm4.896 0V46.62h1.293v2.346h1.484c.807 0 1.44.177 1.898.532.467.345.7.855.7 1.527 0 .664-.228 1.174-.686 1.528-.459.355-1.091.532-1.898.532h-2.79zm1.293-1.023h1.333c.963 0 1.444-.34 1.444-1.023 0-.71-.481-1.064-1.444-1.064h-1.334v2.087zm9.113 1.023V46.62h1.292v2.564h3.231V46.62h1.293v6.465h-1.293v-2.85h-3.231v2.85h-1.292zm9.926.164a3.05 3.05 0 01-.811-.11 2.917 2.917 0 01-.756-.327 1.628 1.628 0 01-.578-.613 1.953 1.953 0 01-.22-.942c0-.372.087-.695.261-.968.184-.282.413-.496.688-.641.275-.155.623-.273 1.045-.355.431-.09.834-.15 1.21-.177.385-.027.829-.041 1.333-.041v-.177c0-.464-.146-.814-.44-1.05-.284-.246-.673-.369-1.168-.369-.734 0-1.352.25-1.856.75l-.688-.818c.678-.646 1.567-.969 2.667-.969.899 0 1.577.237 2.035.71.459.463.688 1.073.688 1.827v2.824c0 .564.032.991.096 1.282h-1.169a4.025 4.025 0 01-.11-.927h-.041c-.486.727-1.214 1.09-2.186 1.09zm.289-1.01c.586 0 1.045-.172 1.375-.518.339-.355.508-.814.508-1.378v-.34h-.316c-1.934 0-2.901.409-2.901 1.227 0 .355.128.614.385.778.257.154.573.231.949.231zm14.298.055c-.669.646-1.503.968-2.502.968-.999 0-1.833-.322-2.502-.968-.669-.646-1.004-1.464-1.004-2.455 0-.991.33-1.805.99-2.442.669-.636 1.508-.955 2.516-.955s1.847.319 2.516.955c.669.637 1.004 1.45 1.004 2.442 0 .99-.339 1.81-1.018 2.455zm-4.097-.791c.394.455.926.682 1.595.682.669 0 1.196-.227 1.581-.682.394-.464.591-1.019.591-1.664 0-.646-.197-1.196-.591-1.65-.385-.455-.912-.683-1.581-.683-.669 0-1.201.228-1.595.682-.385.455-.577 1.005-.577 1.65 0 .646.192 1.201.577 1.665zm5.88 3.56V52.02h.715c.65-.827.976-2.064.976-3.71v-1.69h5.018v5.401h1.004v3.042h-1.128v-1.978h-5.458v1.978h-1.127zm2.117-3.042h3.314V47.67h-2.503v.982c0 1.3-.27 2.423-.811 3.37zm10.111 1.241c-.999 0-1.824-.313-2.475-.94-.641-.628-.962-1.447-.962-2.456 0-1 .321-1.819.962-2.455.642-.646 1.444-.969 2.407-.969.962 0 1.723.305 2.282.914.568.6.852 1.414.852 2.442 0 .19-.004.336-.013.436h-5.17c.018.555.234 1.023.646 1.405.413.373.903.56 1.471.56.816 0 1.448-.328 1.898-.983l.907.723c-.687.882-1.622 1.323-2.805 1.323zm-2.117-3.983h3.877c-.018-.536-.183-.973-.495-1.309-.311-.346-.756-.518-1.333-.518-.55 0-1.018.177-1.403.532-.385.354-.6.786-.646 1.295zm5.66 3.806l3.107-3.383-2.832-3.082h1.691l2.571 3h.041v-3h1.293v3h.041l2.571-3h1.691l-2.846 3.082 3.121 3.383h-1.705l-2.832-3.192h-.041v3.192h-1.293v-3.192h-.041l-2.832 3.192h-1.705zm10.719 1.978V52.02h.715c.651-.827.977-2.064.977-3.71v-1.69h5.018v5.401h1.004v3.042h-1.128v-1.978h-5.458v1.978h-1.128zm2.118-3.042h3.313V47.67h-2.502v.982c0 1.3-.27 2.423-.811 3.37zm10.111 1.241c-.999 0-1.824-.313-2.475-.94-.641-.628-.962-1.447-.962-2.456 0-1 .321-1.819.962-2.455.642-.646 1.444-.969 2.406-.969.963 0 1.724.305 2.283.914.568.6.852 1.414.852 2.442 0 .19-.005.336-.014.436h-5.169a1.93 1.93 0 00.646 1.405c.412.373.903.56 1.471.56.816 0 1.448-.328 1.897-.983l.908.723c-.688.882-1.623 1.323-2.805 1.323zm-2.117-3.983h3.877c-.018-.536-.183-.973-.495-1.309-.312-.346-.756-.518-1.334-.518-.55 0-1.017.177-1.402.532-.385.354-.6.786-.646 1.295z" fill="#fff"/><g clip-path="url(#clip0_2_1457)" fill-rule="evenodd" clip-rule="evenodd"><path d="M16.142 59.358c-.103 0-.445.036-.547.048-.286.03-.437.106-.717.235-.318.254.841.422 1.206.336.364-.086.508.033 1.012.018.257-.008 1.584-.1 1.991-.184.474-.098.968-.09 1.456-.083.733.012 2.432.15 3.168.152.28.002.853-.213.385-.327-1.07-.563-2.35-.422-3.824-.444-.72-.011-1.435.011-2.152.081-.656.063-1.412.169-1.979.169l.001-.001zm28.348-1.435c-.426.004-1.181-.067-1.594-.101.405-.545.992-2.708 1.204-4.458.45-2.376.234-4.74-.482-7.026-.538-1.717-1.511-3.262-2.693-4.657-.292-.345-.678-.616-1.084-.98-.285 3.588-1.598 6.716-3.154 9.721.047.082.056.115.076.126.092.053.183.11.281.148 1.09.435 1.932 1.166 2.6 2.086.907 1.245 1.253 2.613.864 4.119-.307.83.77.924-.712 1.082-.852.158-2.76.048-2.873.285-.097.309.401.227 1.074.276.693.05 4.748.053 5.2 0 .43-.048.864-.072 1.297-.096.304-.017.575.021.54-.301-.029-.26-.195-.228-.544-.225v.001z" fill="#442C22"/><path d="M23.66 51.31c-.061 2.046-2.707 5.989-3.247 6.371-.214.152-.69.506-.418 1.06.021.045.048.09.08.138l.008.006c.11.174.13.22-.088.22-.269.002.307.265.307.265l.378-.123c.586.26 1.17.245 1.771.09.23.161.476.323.476.323s.735-.296.42-.39c-.314-.092 0-.253 0-.253l-.003-.003c.287-.143.52-.312.737-.553.53-.586 1.11-1.146 1.534-1.8.603-.928 1.086-1.93 1.616-2.9.277-.51.549-1.023.851-1.587-1.258-1.006-2.638-1.623-4.38-1.589-.02.313-.036.518-.042.724v.001zm-5.533-23.96c.252-.785.548-1.044.839-1.082.915-.123 1.573-.2 2.488-.298.27-.028.812.07 1.066.15.122.038.28.36.267.541-.025.367-.284.576-.48.362-.867-.556-1.693-.23-2.744-.083-.577.19-1.523.715-1.436.41zm3.153 2.124c.512-.34 1.052-.655 1.615-.909.833-.375 1.11-1.069 1.148-1.854.018-.357-.105-.895-.362-1.056-.55-.345-1.105-.642-1.823-.72-1.542 0-2.86.537-4.204.927-1.236.358-1.425 1.676-.426 2.458.815.637 1.78.988 2.755 1.32.477.162.875.112 1.298-.167zm3.695 3.618c.088.16.288.332.45.35.146.016.493-.142.581-.342-.064-.27-.436-.464-.523-.434-.196.067-.483.23-.508.425zm-9.985.311c-.065.166-.059.383.156.467.153 0 .404-.133.409-.209.01-.16.039-.43-.157-.583-.189 0-.42.268-.407.325h-.001zm13.241-1.212c.187 0 .38-.164.387-.256.013-.197.146-.538-.192-.717-.265 0-.516.33-.5.4.044.203.129.497.305.574zM16.125 30.63c.012-.18.087-.525-.175-.656-.31 0-.473.302-.459.366-.07.247-.099.505.28.526.171 0 .349-.15.354-.235zm9.893-.48c0-.222-.202-.439-.347-.48-.212.041-.376.206-.48.362-.044.064.158.397.207.388.197-.035.572-.048.62-.27zm-13.531 2.3c.222-.15.252-.434.266-.656.005-.094-.286-.472-.594-.408-.306.211-.138.576-.137.785.001.168.232.328.466.278h-.001zM29.87 51.94c.814.923 1.252 1.99 1.186 3.208-.04.733-.26 1.704-.375 2.441l-.108.017c-.21.01-.421.03-.631.06-.37.053-1.367.172-1.425.182-.16.026-.247.09-.404.198-.18.213.68.282.68.282s.287.029.572.015c.145-.007.849-.09 1.09-.096.31-.01.58.022.855.028.173.005.443 0 .73-.007l.093.001c.01 0 .025-.003.038-.004.354-.01.712-.02.926-.017.157 0 .48-.18.217-.276a1.597 1.597 0 00-.526-.27c1.075-1.936 1.444-4.499 1.6-5.42.081-.478.127-.962.18-1.466-.87.006-1.741.028-2.588.203-.765.158-1.513.454-2.108.92h-.002zm-13.013 5.572a.81.81 0 00-.302-.659c-.24-.2-.685-1.013-.794-1.306-.393-1.051-.506-1.722-.677-2.809-.138-.878.13-1.597.573-2.308l.002-.004a.53.53 0 00-.187-.73c-1.387-.843-2.874-1.213-4.537-1.187a.544.544 0 00-.531.653c.184.835.35 1.614.547 2.385.253.992.496 1.992.848 2.953.338.922.63 1.45 1.051 2.364.128.227.267.401.41.551a28.52 28.52 0 00-.995.056c-.656.046-1.362.22-1.928.212-.103-.001-.369.028-.462-.007-.217-.08-.474.038-.706.085-.457.28.682.544 1.047.475.33-.062 3.975-.168 4.463-.153 1.011.03 3.639.251 3.298-.23a3.836 3.836 0 00-1.12-.34v-.001zm.669-21.046c.528-.298 1.102-.392 1.698-.458.1-.01.205-.018.296.02.287.12.222.537.056.794-.096.15-.224.532-.19.711.023.127.113.179.239.167.41-.787.92-1.357 1.79-1.614.863-.254 2.178-.403 3.228.218.087.09.18.173.25.278-.28.597-.864 1.005-1.465 1.306-1.14.57-2.686.885-3.96.8-2.63-.175-2.976-1.215-2.976-1.215s.287-.495 1.03-1.008l.004.001zm6.176 3.076c1.092-.36 4.357-1.838 5.813-3.832.144-.197-.064-.45-.303-.384-3.573.999-4.91-2.843-9.098-2.365-1.379.158-2.612.916-3.677 1.849-.895.784-2.185 2.273-3.85 2.062-.298-.037-.485.282-.3.512 2.271 2.835 7.881 3.323 11.415 2.16v-.002zm15.145 1.064c.07-.486.032-.96-.414-1.292l-.602-.442a24.301 24.301 0 01-2.735 9.918c-.108.207-.418.714-.585 1.18.114.013.215.028.276.047l.885.093c.065-.085.181-.23.291-.381.11-.15.23-.295.32-.455a19.6 19.6 0 002.092-5.624c.209-1.005.326-2.029.472-3.045v.001zm-14.21 8.134a4.767 4.767 0 00-1.84.18c.09.095.18.194.266.302.263.328.567.475.97.47 1.444-.019 2.7.5 3.892 1.234.345.211.635.603 1.155.408l.016-.001a3.62 3.62 0 01.468-.322c-.497-.481-1.098-.857-1.716-1.185-1.002-.53-2.074-.98-3.211-1.087zm-14.314-1.248c.135.014.271.024.406.02 1.842-.056 3.565.414 5.166 1.24.677.35 1.122.348 1.738-.088-.748-.858-1.905-1.337-3.027-1.683-1.123-.348-2.306-.612-3.491-.559-.234.011-.832.028-1.262.132.065.293.2.596.244.85.128.051.176.084.226.09v-.002z" fill="#442C22"/><path d="M27.961 40.801c1.218-.674 2.274-1.585 3.32-2.49.86-.743 1.614-1.456 2.327-2.317a7.762 7.762 0 00-1.025-.432.656.656 0 00-.283-.045c-.107.013-.771.882-.843.961-1.516 1.622-1.307 1.428-2.495 2.173a17.57 17.57 0 01-1.641.897l-.161.083a1.23 1.23 0 00-.281.182c-.022.01-.047.02-.065.032-.968.636-2.068.76-3.083 1.005-1.235.297-2.483.596-3.743.741-3.344.386-7.435-1.057-9.615-3.674-.137.161-.296.827-.43 1.528.618.538 1.629 1.527 2.975 1.924.387.114.79.164 1.176.274.405.117.786.298 1.181.441 1.517.553 3.184.545 4.803.47 2.718-.125 5.518-.445 7.881-1.752h.002zM9.647 20.785c.448-.46 1.068-.67 1.905-.72-.21.226-.318.35-.435.466-.824.824-1.001 1.788-.575 2.833.134.329.422.606.67.88.15.166.358.281.563.435-.314.334-.66.297-.971.2-1.754-.552-2.586-2.624-1.157-4.094zm-.899-2.238c-.112-.19-.126-.5-.048-.714.242-.66 1.959-1.626 2.678-1.554.432.042.768.475.652.99-.105.11-.248.365-.467.471-.72.349-1.46.664-2.21.942-.17.063-.533-.012-.605-.135zm-.45-8.92c-.415-.876-1.36-3.073-1.67-3.48-.447-.59-1.013-1.115-1.577-1.626-.348-.317-.585-.135-.405-.702.11-.193.537-.12.598-.024.263.421.677.672 1.111.953.584.376 1.18.818 1.332 1.533.03.139.59.77.67.988.292.81.538 1.633.818 2.447.187.542.429 1.07.595 1.615.126.412.524 1.62.768 2.052.188.33.028.525-.525.393-.19-.263-.6-1.064-.643-1.287-.083-.049-.32-.938-.49-1.24-.116-.205-.327-.594-.257-.955.04-.2-.218-.438-.325-.666zm4.6 11.608c.481 0 .873.38.873.847a.86.86 0 01-.874.847.86.86 0 01-.874-.847.86.86 0 01.874-.847zm-.831 2.687a.386.386 0 01-.391-.38c0-.208.175-.379.39-.379.217 0 .393.17.393.38 0 .209-.176.38-.392.38zm14.514-.766c.221 0 .4.173.4.387a.393.393 0 01-.4.387c-.22 0-.4-.173-.4-.387 0-.213.18-.387.4-.387zm.8-1.895c.468 0 .847.368.847.82a.835.835 0 01-.847.822.835.835 0 01-.848-.821c0-.453.38-.82.848-.82zm.656-4.698c.243-.367.631-.393.983-.237.666.299 1.309.648 1.95.997.134.073.47.189.409.45-.163.215-.28.525-.494.615-.244.102-.612.087-.861-.019-.551-.231-1.073-.532-1.584-.84-.46-.275-.607-.657-.401-.967h-.002zm1.37-4.843c.28-.112.614.173.502.318-.139.2-.64 1.428-.827 1.628-.27.287-.377.105-.706.03-.234-.094.65-1.824 1.032-1.976zm1.703-4.263c.094-.038 1.633-2.625 2.823-3.602.035-.028.397-.122.457.097.118.296.005.358-.177.494-.119.088-.147.28-.238.416-.256.385-.514.773-.821 1.128-.7.808-1.254 1.669-1.552 2.652-.149.493-.393.965-.557 1.456-.097.288-.53.42-.713.42-.182 0-.387.15-.333-.301.116-.98 1.111-2.76 1.111-2.76zm-.5 16.71c-.692.686-1.41.898-2.176.531.516-.436 1.083-.718 1.288-1.346.187-.574.3-1.156.062-1.702-.232-.533-.606-1.008-.909-1.493.753-.189 1.77.545 2.14 1.169.551.932.22 2.223-.405 2.842zm-19.54 6.15c.617-.665 1.25-1.322 1.777-2.051.825-1.143 1.699-2.236 2.966-2.934 2.252-1.109 3.956-1.223 4.427-1.277.597-.07 1.197-.03 1.798-.082.607-.053 1.28.132 1.857.368.625.254 1.195.657 1.752 1.046 1.934 1.352 3.323 3.193 4.75 5.003.506.644 2.691 2.323 3.162 2.664.595.43 1.379.332 1.734.028.82-1.176.812-1.175.67-2.617a3.835 3.835 0 01.023-1.03c.24-1.366.534-2.724.758-4.093.1-.606.1-1.23.113-1.846.01-.506.168-3.145-.126-3.951-.137-.67-.344-1.058-.387-1.546.29-.425 1.965-2.35 2.01-2.657.067-.452.139-.737.358-1.078.419-.652.629-1.397.675-2.15.033-.537.64-3.679.859-4.32.09-.266.043-1.68.155-2.788.15-1.735.084-2.988-.57-4.291-.214-.223-.42-.355-.665-.52C38.969.062 38.628 0 38.332 0a1.53 1.53 0 00-.356.037c-.41.102-.838.186-1.214.365-1.087.517-2.196 1.008-3.213 1.636-1.36.842-2.538 1.916-3.636 3.065-.564.59-.949 1.337-1.6 1.84-.337.26-.552.56-.752.902-.175.298-.37.585-.563.873-.196.294-.396.587-.6.878-.298.428-.717.782-.868 1.303-.142.491-.274.987-.432 1.473-.083.254-.215.493-.332.752-.415-.122-1.923-.387-2.176-.411-.635-.061-1.278-.038-1.918-.03-.587.008-1.181-.006-1.76.074-.838.115-1.665.309-2.498.464-.882.164-1.024.087-1.406-.73-.422-.9-1.35-2.861-1.39-2.944-.109-.232-.186-.496-.355-.68-.508-.55-.904-1.19-1.492-1.68-.572-.477-1.068-1.04-1.649-1.504-.851-.678-1.747-1.305-2.63-1.945a7.628 7.628 0 00-.952-.616c-.707-.366-1.262-.897-1.796-1.46C4.05.928 3.184.551 2.178.518c-.428.019-.97.201-.97.201l-.86.503c-.24.355-.289.659-.304.97A51.68 51.68 0 000 4.464v.29l.002.532c0 .295.13.593.107.883-.052.663-.098 1.31-.054 1.987.07 1.103.404 2.167.368 3.292-.024.826.33 1.646.491 2.474.195 1.005.555 1.979.845 2.966.014.045.04.085.06.127.166.35.34.696.497 1.05.153.342.414 1.131.963 1.858-.003.614-.026 1.104-.015 1.558.013.51-.013 1-.203 1.49-.14.363-.421 2.722-.289 3.539.075.462.068.992.111 1.477.08.895.19 1.829.533 2.65.484 1.156 1.333 1.98 2.77 2.14a3.89 3.89 0 002.594-.59c.83-.528 1.613-1.14 2.29-1.87z" fill="#442C22"/><path d="M9.946 39.444c.618.539 1.628 1.528 2.976 1.925.385.114.79.164 1.176.274.405.116.786.297 1.18.44 1.518.553 3.184.545 4.803.471 2.719-.125 5.519-.445 7.882-1.752 1.218-.674 2.274-1.585 3.32-2.49.86-.744 1.615-1.456 2.327-2.316.767.381 1.591.912 2.343 1.512.05.025.1.054.149.09.78.57 1.732 1.275 1.732 1.275a24.22 24.22 0 01-1.278 6.535 24.409 24.409 0 01-1.456 3.384c-.108.207-.418.714-.586 1.18h.001a14.759 14.759 0 00-1.41-.06 7.222 7.222 0 00-1.786.3 7.005 7.005 0 00-1.752.8c-.496-.48-1.097-.856-1.715-1.184-1.001-.53-2.075-.98-3.211-1.087a4.764 4.764 0 00-1.841.18l-.04-.036c-1.503-1.512-3.654-1.31-5.06-.263-.021.017-.041.028-.063.043-.747-.858-1.904-1.336-3.027-1.683-1.122-.348-2.305-.612-3.49-.558-.234.01-.833.028-1.263.131l-.004-.017a14.999 14.999 0 01-.187-5.37l.282-1.722-.002-.002z" fill="#fff"/><path d="M24.644 36.305c-1.048-.62-2.365-.472-3.227-.217-.87.256-1.38.827-1.79 1.613-.127.012-.217-.04-.241-.166-.034-.18.094-.561.191-.712.165-.257.23-.675-.057-.794a.59.59 0 00-.296-.02c-.596.066-1.17.16-1.699.459-.744.512-1.03 1.007-1.03 1.007s.345 1.04 2.975 1.215c1.275.084 2.821-.23 3.96-.8.601-.3 1.184-.71 1.465-1.306-.07-.105-.163-.188-.25-.278zm-5.08-9.365c1.05-.147 1.877-.473 2.742.083.197.215.455.005.48-.362.012-.181-.144-.503-.267-.54-.254-.08-.795-.178-1.065-.15a81.4 81.4 0 00-2.489.297c-.29.04-.587.298-.838 1.082-.087.304.859-.22 1.436-.41zm6.97-4.858c0 .453.38.82.848.82a.834.834 0 00.847-.82.834.834 0 00-.847-.82.835.835 0 00-.848.82zm.448 1.461a.394.394 0 00-.4-.387c-.22 0-.4.173-.4.387 0 .214.18.387.4.387.221 0 .4-.173.4-.387zm2.802-1.893c.238.546.125 1.129-.062 1.701-.205.628-.772.91-1.288 1.347.766.366 1.483.154 2.176-.531.624-.619.955-1.91.404-2.841-.369-.624-1.385-1.358-2.139-1.169.303.485.676.96.91 1.493zm-1.344-4.12c.51.308 1.033.61 1.583.84.25.105.617.121.861.019.215-.09.332-.4.494-.615.062-.261-.275-.378-.409-.45-.64-.349-1.283-.698-1.949-.997-.35-.157-.74-.13-.982.237-.205.309-.059.692.401.967zm-.063-3.834c.329.075.436.257.705-.03.188-.2.69-1.428.828-1.628.112-.145-.223-.43-.502-.318-.382.153-1.266 1.883-1.032 1.976zm1.622-3.479c-.054.451.15.301.333.301.183 0 .616-.132.713-.42.164-.49.408-.963.557-1.456.298-.983.853-1.844 1.552-2.652.307-.354.564-.743.821-1.129.09-.136.118-.327.238-.415.182-.136.295-.198.177-.494-.059-.219-.42-.126-.457-.097-1.189.977-2.73 3.564-2.823 3.603 0 0-.995 1.78-1.111 2.76v-.001zM9.176 9.715c-.28-.813-.526-1.636-.82-2.446-.078-.217-.64-.85-.669-.989-.151-.716-.748-1.157-1.331-1.533-.435-.28-.848-.53-1.112-.952-.06-.097-.487-.17-.598.023-.18.566.057.385.406.703.563.511 1.13 1.035 1.577 1.626.308.407 1.254 2.604 1.67 3.48.108.227.364.466.325.665-.07.361.14.75.256.956.17.302.407 1.191.49 1.24.043.222.453 1.023.643 1.287.553.132.713-.063.525-.393-.245-.433-.643-1.639-.768-2.052-.167-.546-.41-1.073-.595-1.615zm2.202 6.563c-.72-.07-2.435.894-2.678 1.556-.078.213-.063.524.049.714.072.122.433.197.602.134a25.471 25.471 0 002.211-.942c.22-.105.363-.36.467-.47.117-.517-.219-.949-.652-.991h.001zm.175 3.786c-.837.051-1.458.262-1.905.721-1.428 1.47-.597 3.542 1.157 4.093.31.098.658.135.97-.199-.203-.154-.412-.269-.562-.434-.248-.276-.535-.552-.67-.881-.426-1.045-.248-2.008.575-2.833.117-.117.225-.24.435-.467zm1.344 1.172a.86.86 0 00-.874.846.86.86 0 00.874.847c.482 0 .874-.379.874-.846a.86.86 0 00-.874-.847z" fill="#fff"/><path d="M12.46 23.543a.386.386 0 00-.393-.379.385.385 0 00-.39.38c0 .209.175.379.39.379.217 0 .393-.17.393-.38z" fill="#fff"/></g><defs><clipPath id="clip0_2_1457"><path fill="#fff" d="M0 0h45.037v60H0z"/></clipPath></defs></svg>