<svg width="171" height="60" fill="none" xmlns="http://www.w3.org/2000/svg"><path fill-rule="evenodd" clip-rule="evenodd" d="M134.719 11.037c0 2.334-1.362 3.092-3.044 2.942-1.681-.15-3.052-.908-3.052-2.942a2.76 2.76 0 01.123-1.13c.119-.364.312-.702.569-.993.256-.29.571-.529.924-.7.354-.17.74-.271 1.134-.295a3.3 3.3 0 011.276.196c.407.148.778.375 1.091.667.313.292.562.642.73 1.03.168.388.253.804.249 1.225zm-79.956 5.217s-.302 2.451-.707 5.252c-.207 1.668-.431 3.501-.664 5.002-.225 1.842-.449 3.634-.656 4.735l-.707 5.243h13.046s.621-3.718.57-3.726c-.863-.142-6.899-.884-7.545-.833 0-.417.129-1.46.327-3.018.199-1.56.466-2.935.733-5.135.267-2.06.526-3.543.733-5.244.198-1.3.345-2.242.328-2.242-.914.075-5.458-.234-5.458-.034zm28.573 18.265c0 .266 1.724-8.095 2.026-9.545.345-1.05 2.035-9.279 2.035-9.412 0-.133 5.553-.258 5.553-.258s.862 1.809 1.724 3.26c.863 1.591 1.725 3.459 1.725 3.259 0-.2.862-1.793 1.725-3.66a331.06 331.06 0 011.724-3.668l4.803-.667 3.673 20.357-4.967 1.125s-.586-3.567-1.172-6.452c-.587-2.884-1.182-5.718-1.182-5.768a31.63 31.63 0 01-1.491 3.117c-.742 1.668-1.483 3.118-1.483 3.118l-3.837.15s-.863-1.926-1.656-3.434c-.862-2.018-1.664-3.126-1.664-3.435 0 .55-.604 2.684-1.207 5.769-.604 3.084-1.216 6.452-1.216 6.452l-5.113-.308zm55.994.241s0-1.475-.06-5.368c0-1.926 0-3.127-.061-5.102 0-1.459-.043-2.76-.06-4.86 0-3.01-.069-5.369-.069-5.369h5.018l.095 7.753.164.1a18.636 18.636 0 013.113-4.168c1.724-1.717 3.604-3.926 3.604-3.926l3.268 2.917-6.501 7.845 6.898 7.969-3.881 2.793-6.044-7.411-.155.05s.155 2.034.155 3.551v3.385l-5.484-.159zm-10.698-16.73c.002.756.049 1.51.138 2.26.13 1.192.302 3.885.474 5.393.173 1.51.337 3.994.466 5.636.129 1.259.216 2.75.216 2.75l5.001.317s0-2.217.06-4.91c0-1.667.043-2.976.06-4.326 0-1.876.044-3.376.061-4.318 0-2.284.069-4.652.069-4.652s-6.622.209-6.622.542c.059.434.085.871.077 1.309z" fill="#442C22"/><path fill-rule="evenodd" clip-rule="evenodd" d="M67.472 24.49c-.276-1.776.862-2.876 2.586-2.61.184 1.348.495 2.677.932 3.969-1.38.892-3.242.441-3.518-1.343v-.016zm7.01-2.368c-.19-2.109-.207-2.776-.371-4.776-.164-2.001-.267-2.818-1.56-4.052a6.738 6.738 0 00-4.157-1.525c-1.839.14-3.615.712-5.173 1.667a31.623 31.623 0 001.405 3.018c1.483-.75 2.846-1.234 3.854-.976 1.01.259 1.466.576 1.596 3.077a6.135 6.135 0 00-3.063.2 5.957 5.957 0 00-2.55 1.65 6.288 6.288 0 00-1.236 3.519 6.264 6.264 0 00.985 3.592c2.328 3.193 5.924 2.5 7.968.292 1.18.992 2 1.183 3.81.975.509-.908.97-1.84 1.38-2.793-2.12-.566-2.664-2.1-2.888-3.868zm41.336 7.146c-.432-2.067 1.043-3.71 2.819-3.243a19.426 19.426 0 001.216 5.069 2.789 2.789 0 01-2.513.11 2.69 2.69 0 01-1.008-.787 2.567 2.567 0 01-.514-1.15zm8.225-.125c-1.612-5.677-.103-9.387-2.095-13.338-2.112-4.168-9.485-3.018-11.632-.634l1.242 3.643c1.992-1.492 4.553-1.75 5.656-1.058 1.104.692 1.173 1.534 1.173 4.668-5.018-.55-7.864 2.41-7.243 7.41.862 6.961 8.39 5.711 10.08 3.694 1.612 1.667 4.311 1.284 4.311 1.284l1.173-3.127a3.438 3.438 0 01-1.717-.867 3.266 3.266 0 01-.948-1.633v-.042zm36.677-.077c-.267-2.292 1.535-2.926 3.449-3.026.022 1.703.186 3.4.492 5.077-1.88.542-3.716 0-3.958-2.05h.017zm8.114-1.208c.276-4.769 1.656-9.487-.215-11.963-2.587-3.434-8.761-2.5-11.572-.308l1.639 3.617c.862-.341 3.621-1.8 5.173-.683s1 2.834.647 4.56c-2.785-.534-9.192 0-8.623 6.402.483 5.193 5.312 7.37 9.209 4.318a4.25 4.25 0 001.581 1.46 4.428 4.428 0 002.118.524l2.207-2.86c-2.043-1.2-2.302-2.583-2.164-5.067z" fill="#442C22"/><path d="M54.39 53.085V46.62h5.775v6.465h-1.292V47.67h-3.19v5.415h-1.292zm11.014.177c-1 0-1.824-.314-2.475-.941-.642-.627-.962-1.446-.962-2.455 0-1 .32-1.819.962-2.455.642-.646 1.444-.969 2.406-.969.963 0 1.723.305 2.283.914.568.6.852 1.414.852 2.442 0 .19-.005.336-.014.436h-5.17c.019.555.234 1.023.647 1.405.412.373.903.56 1.47.56.817 0 1.45-.328 1.898-.983l.908.723c-.688.882-1.623 1.323-2.805 1.323zm-2.117-3.983h3.877c-.019-.536-.183-.973-.495-1.31-.312-.345-.756-.517-1.334-.517-.55 0-1.017.177-1.402.532-.385.354-.6.786-.646 1.295zm10.796 3.806V50.56a6.888 6.888 0 01-1.815.219c-1.485 0-2.227-.682-2.227-2.046V46.62h1.264v1.827c0 .5.11.841.33 1.023.22.182.56.273 1.018.273.458 0 .935-.068 1.43-.205V46.62h1.292v6.465h-1.292zm5.406.163c-.275 0-.546-.036-.811-.109a2.93 2.93 0 01-.757-.327 1.629 1.629 0 01-.577-.614 1.956 1.956 0 01-.22-.94c0-.374.087-.697.261-.97.184-.281.413-.495.688-.64.275-.155.623-.273 1.045-.355.43-.091.834-.15 1.21-.177.385-.028.83-.041 1.333-.041v-.178c0-.463-.146-.813-.44-1.05-.284-.245-.673-.368-1.168-.368-.734 0-1.352.25-1.856.75l-.688-.818c.678-.646 1.567-.969 2.667-.969.899 0 1.577.237 2.035.71.459.463.688 1.072.688 1.827v2.824c0 .564.032.99.096 1.282h-1.169a4.008 4.008 0 01-.11-.928h-.041c-.486.728-1.215 1.092-2.186 1.092zm.289-1.009c.586 0 1.044-.173 1.374-.518.34-.355.51-.814.51-1.378v-.34h-.317c-1.934 0-2.901.408-2.901 1.227 0 .354.128.614.385.777.257.155.573.232.949.232zm6.654.846V47.67h-2.214v-1.05h5.72v1.05h-2.214v5.415h-1.292zm4.895 0V46.62h1.293v2.346h1.485c.806 0 1.439.177 1.897.532.467.345.701.854.701 1.527 0 .664-.229 1.173-.687 1.528-.459.355-1.091.532-1.898.532h-2.79zm1.293-1.023h1.333c.963 0 1.444-.341 1.444-1.023 0-.71-.481-1.064-1.444-1.064H92.62v2.087zm9.113 1.023V46.62h1.292v2.564h3.231V46.62h1.293v6.465h-1.293v-2.85h-3.231v2.85h-1.292zm9.926.163a3.06 3.06 0 01-.811-.109 2.921 2.921 0 01-.756-.327 1.628 1.628 0 01-.578-.614 1.964 1.964 0 01-.22-.94c0-.374.087-.697.262-.97.183-.281.412-.495.687-.64.275-.155.623-.273 1.045-.355a9 9 0 011.21-.177c.385-.028.829-.041 1.333-.041v-.178c0-.463-.146-.813-.439-1.05-.285-.245-.674-.368-1.169-.368-.733 0-1.352.25-1.856.75l-.688-.818c.679-.646 1.568-.969 2.668-.969.898 0 1.576.237 2.034.71.459.463.688 1.072.688 1.827v2.824c0 .564.032.99.096 1.282h-1.169a4.024 4.024 0 01-.11-.928h-.041c-.486.728-1.214 1.092-2.186 1.092zm.289-1.009c.587 0 1.045-.173 1.375-.518.339-.355.508-.814.508-1.378v-.34h-.316c-1.934 0-2.901.408-2.901 1.227 0 .354.129.614.385.777.257.155.573.232.949.232zm14.299.055c-.669.645-1.504.968-2.503.968-.999 0-1.833-.323-2.502-.968-.669-.646-1.004-1.464-1.004-2.455 0-.992.33-1.806.99-2.442.669-.637 1.508-.955 2.516-.955 1.009 0 1.847.318 2.516.955.669.636 1.004 1.45 1.004 2.442 0 .99-.339 1.81-1.017 2.455zm-4.098-.791c.395.454.926.682 1.595.682.669 0 1.196-.228 1.581-.682.395-.464.592-1.019.592-1.664 0-.646-.197-1.196-.592-1.65-.385-.456-.912-.683-1.581-.683-.669 0-1.2.227-1.595.682-.385.455-.577 1.005-.577 1.65 0 .646.192 1.2.577 1.665zm5.88 3.56V52.02h.715c.651-.828.976-2.064.976-3.71v-1.69h5.018v5.4h1.004v3.043h-1.127v-1.978h-5.459v1.978h-1.127zm2.117-3.042h3.314V47.67h-2.503v.982c0 1.3-.27 2.423-.811 3.369zm10.111 1.241c-.999 0-1.824-.314-2.474-.941-.642-.627-.963-1.446-.963-2.455 0-1 .321-1.819.963-2.455.641-.646 1.443-.969 2.406-.969.962 0 1.723.305 2.282.914.568.6.852 1.414.852 2.442 0 .19-.004.336-.013.436h-5.17c.018.555.234 1.023.646 1.405.413.373.903.56 1.471.56.816 0 1.449-.328 1.898-.983l.907.723c-.687.882-1.622 1.323-2.805 1.323zm-2.117-3.983h3.877c-.018-.536-.183-.973-.495-1.31-.311-.345-.756-.517-1.333-.517-.55 0-1.018.177-1.403.532-.385.354-.6.786-.646 1.295zm5.66 3.806l3.107-3.383-2.832-3.082h1.691l2.571 3h.041v-3h1.293v3h.041l2.571-3h1.691l-2.846 3.082 3.121 3.383h-1.705l-2.832-3.192h-.041v3.192h-1.293v-3.192h-.041l-2.832 3.192H143.8zm10.72 1.978V52.02h.715c.65-.828.976-2.064.976-3.71v-1.69h5.018v5.4h1.004v3.043h-1.128v-1.978h-5.458v1.978h-1.127zm2.117-3.042h3.314V47.67h-2.503v.982c0 1.3-.27 2.423-.811 3.369zm10.111 1.241c-.999 0-1.824-.314-2.475-.941-.641-.627-.962-1.446-.962-2.455 0-1 .321-1.819.962-2.455.642-.646 1.444-.969 2.407-.969.962 0 1.723.305 2.282.914.568.6.852 1.414.852 2.442 0 .19-.004.336-.013.436h-5.17c.018.555.234 1.023.646 1.405.413.373.903.56 1.471.56.816 0 1.448-.328 1.898-.983l.907.723c-.687.882-1.622 1.323-2.805 1.323zm-2.117-3.983h3.877c-.018-.536-.183-.973-.495-1.31-.311-.345-.756-.517-1.333-.517-.55 0-1.018.177-1.403.532-.385.354-.6.786-.646 1.295z" fill="#48C76C"/><path fill-rule="evenodd" clip-rule="evenodd" d="M16.143 59.357c-.104 0-.445.037-.548.049-.285.03-.436.105-.716.235-.318.254.841.422 1.206.336.364-.087.508.033 1.012.017.257-.008 1.584-.1 1.99-.183.475-.098.969-.09 1.456-.083.734.012 2.433.149 3.17.152.28.002.852-.214.384-.327-1.071-.563-2.35-.422-3.825-.445-.72-.01-1.435.012-2.151.082-.656.063-1.412.168-1.98.168h.002zm28.347-1.434c-.425.004-1.181-.067-1.593-.101.405-.545.992-2.708 1.203-4.458.45-2.376.234-4.74-.481-7.026-.538-1.717-1.512-3.262-2.694-4.657-.292-.345-.677-.616-1.083-.98-.285 3.588-1.598 6.716-3.154 9.721.047.082.055.115.075.126.092.053.183.11.281.148 1.09.435 1.932 1.166 2.6 2.086.908 1.245 1.254 2.613.864 4.119-.307.83.77.924-.712 1.082-.851.158-2.759.048-2.873.285-.097.309.402.227 1.074.276.693.05 4.748.053 5.2 0 .431-.048.865-.072 1.297-.096.305-.017.576.021.54-.301-.028-.26-.195-.228-.543-.225v.001z" fill="#442C22"/><path fill-rule="evenodd" clip-rule="evenodd" d="M23.66 51.31c-.06 2.046-2.706 5.989-3.246 6.371-.214.152-.69.506-.418 1.06.021.045.048.09.08.138l.008.006c.11.174.13.22-.088.22-.269.002.307.265.307.265l.378-.123c.586.26 1.17.245 1.771.09.23.161.476.323.476.323s.735-.296.42-.39c-.314-.092 0-.253 0-.253l-.003-.003a2.37 2.37 0 00.737-.553c.53-.586 1.11-1.146 1.534-1.8.603-.928 1.086-1.93 1.616-2.9.277-.51.549-1.023.851-1.587-1.258-1.006-2.638-1.623-4.38-1.589-.02.313-.036.518-.042.724v.001zm-5.534-23.96c.252-.785.547-1.044.839-1.082.915-.123 1.573-.2 2.488-.298.27-.028.812.07 1.066.15.122.038.28.36.266.541-.025.367-.284.576-.48.362-.866-.556-1.693-.23-2.743-.083-.577.19-1.523.715-1.436.41zm3.153 2.124a11.46 11.46 0 011.614-.909c.834-.375 1.11-1.069 1.149-1.854.017-.357-.106-.895-.363-1.056-.549-.345-1.104-.642-1.822-.72-1.542 0-2.86.537-4.204.927-1.236.358-1.425 1.676-.426 2.458.815.637 1.78.988 2.755 1.32.477.162.875.112 1.298-.167zm3.698 3.617c.087.16.287.333.45.35.145.017.492-.142.58-.342-.063-.27-.436-.463-.523-.433-.196.067-.483.23-.507.425zm-9.987.312c-.066.166-.06.383.156.467.152 0 .403-.133.408-.209.01-.16.039-.43-.156-.583-.19 0-.42.268-.408.325zm13.243-1.212c.186 0 .38-.164.386-.256.013-.197.146-.539-.192-.717-.265 0-.516.329-.5.4.044.203.129.497.306.574v-.001zM16.126 30.63c.012-.18.087-.525-.176-.656-.31 0-.472.302-.458.366-.07.247-.1.505.28.526.17 0 .348-.15.354-.235zm9.891-.48c0-.222-.202-.439-.347-.48-.212.041-.376.206-.48.362-.044.064.158.397.207.388.197-.035.571-.048.62-.27zm-13.529 2.3c.222-.15.253-.434.266-.656.006-.094-.285-.472-.593-.408-.306.211-.139.576-.137.785 0 .168.231.328.465.278zm17.383 19.49c.814.923 1.252 1.99 1.187 3.208-.04.733-.261 1.704-.376 2.441l-.107.017c-.21.01-.422.03-.632.06-.37.053-1.366.172-1.425.182-.16.026-.246.09-.404.198-.179.213.681.282.681.282s.287.029.571.015c.146-.007.85-.09 1.09-.096.311-.01.58.022.855.028.174.005.444 0 .73-.007l.093.001c.011 0 .026-.003.039-.004.353-.01.712-.02.925-.017.158 0 .481-.18.218-.276a1.597 1.597 0 00-.526-.27c1.074-1.936 1.443-4.499 1.6-5.42.08-.478.127-.962.18-1.466-.87.006-1.742.028-2.589.203-.764.158-1.512.454-2.108.92h-.002zm-13.014 5.572a.81.81 0 00-.302-.659c-.24-.2-.685-1.013-.794-1.306-.393-1.051-.506-1.722-.677-2.809-.138-.878.13-1.597.573-2.308l.002-.004a.53.53 0 00-.187-.73c-1.387-.843-2.874-1.213-4.537-1.187a.544.544 0 00-.531.653c.184.835.35 1.614.547 2.385.253.992.496 1.992.848 2.953.338.922.63 1.45 1.051 2.364.128.227.267.401.41.551a28.52 28.52 0 00-.995.056c-.656.046-1.362.22-1.928.212-.103-.001-.369.028-.462-.007-.217-.08-.474.038-.706.085-.457.28.682.544 1.047.475.33-.062 3.975-.168 4.463-.153 1.011.03 3.639.251 3.298-.23a3.836 3.836 0 00-1.12-.34v-.001zm.668-21.045c.528-.299 1.102-.393 1.699-.458a.591.591 0 01.296.02c.286.119.222.536.056.793-.097.15-.225.532-.191.712.024.126.113.178.24.166.41-.786.92-1.357 1.79-1.613.862-.255 2.178-.403 3.227.217.087.09.18.173.25.278-.28.597-.864 1.005-1.465 1.306-1.139.57-2.685.885-3.96.8-2.63-.175-2.976-1.214-2.976-1.214s.288-.496 1.031-1.008h.003zm6.177 3.075c1.092-.359 4.357-1.838 5.812-3.832.145-.197-.063-.45-.302-.384-3.574 1-4.91-2.843-9.099-2.364-1.378.157-2.612.915-3.676 1.848-.895.784-2.185 2.273-3.851 2.063-.297-.038-.484.282-.3.511 2.272 2.835 7.882 3.323 11.416 2.16v-.002zm15.146 1.064c.07-.487.032-.96-.414-1.292-.2-.149-.401-.295-.602-.443a24.301 24.301 0 01-2.735 9.918c-.108.208-.418.715-.585 1.18.114.014.215.028.276.047l.885.094c.065-.085.181-.23.291-.381.11-.15.23-.295.32-.456a19.6 19.6 0 002.092-5.623c.209-1.005.326-2.029.472-3.045zm-14.21 8.134a4.767 4.767 0 00-1.841.18c.091.095.18.194.266.302.264.328.567.475.97.47 1.444-.019 2.7.5 3.893 1.234.344.211.634.603 1.155.408l.016-.001c.115-.103.28-.206.467-.322-.496-.481-1.097-.857-1.716-1.185-1.001-.53-2.074-.98-3.211-1.087zm-14.316-1.248c.135.014.271.024.406.02 1.842-.056 3.565.414 5.165 1.24.678.35 1.123.348 1.739-.088-.748-.858-1.905-1.337-3.028-1.683-1.122-.348-2.305-.612-3.49-.559-.234.011-.833.028-1.262.132.064.293.2.596.244.85.128.051.175.084.226.09v-.002z" fill="#442C22"/><path fill-rule="evenodd" clip-rule="evenodd" d="M27.961 40.801c1.218-.674 2.274-1.585 3.32-2.49.86-.743 1.614-1.456 2.327-2.317a7.762 7.762 0 00-1.025-.432.656.656 0 00-.283-.045c-.107.013-.771.882-.843.961-1.516 1.622-1.307 1.428-2.495 2.173a17.57 17.57 0 01-1.641.897l-.161.083a1.23 1.23 0 00-.281.182c-.022.01-.047.02-.065.032-.968.636-2.068.76-3.083 1.005-1.235.297-2.483.596-3.743.741-3.344.386-7.435-1.057-9.615-3.674-.137.161-.296.827-.43 1.528.618.538 1.629 1.527 2.975 1.924.387.114.79.164 1.176.274.405.117.786.298 1.181.441 1.517.553 3.184.545 4.803.47 2.718-.125 5.518-.445 7.881-1.752h.002zM9.647 20.785c.448-.46 1.068-.67 1.905-.72-.21.226-.318.35-.435.466-.824.824-1.001 1.788-.575 2.833.134.329.422.606.67.88.15.166.358.281.563.435-.314.334-.66.297-.971.2-1.754-.552-2.586-2.624-1.157-4.094zm-.899-2.238c-.112-.19-.126-.5-.048-.714.242-.66 1.959-1.626 2.678-1.554.432.042.768.475.652.99-.105.11-.248.365-.467.471-.72.349-1.46.664-2.21.942-.17.063-.533-.012-.605-.135zm-.45-8.92c-.415-.876-1.36-3.073-1.67-3.48-.447-.59-1.013-1.115-1.577-1.626-.348-.317-.585-.135-.405-.702.11-.193.537-.12.598-.024.263.421.677.672 1.111.953.584.376 1.18.818 1.332 1.533.03.139.59.77.67.988.292.81.538 1.633.818 2.447.187.542.429 1.07.595 1.615.126.412.524 1.62.768 2.052.188.33.028.525-.525.393-.19-.263-.6-1.064-.643-1.287-.083-.049-.32-.938-.49-1.24-.116-.205-.327-.594-.257-.955.04-.2-.218-.438-.325-.666zm4.6 11.608c.481 0 .873.38.873.847a.86.86 0 01-.874.847.86.86 0 01-.874-.847.86.86 0 01.874-.847zm-.831 2.687a.386.386 0 01-.391-.38c0-.208.175-.379.39-.379.217 0 .393.17.393.38 0 .209-.176.38-.392.38zm14.514-.766c.221 0 .4.173.4.387a.393.393 0 01-.4.387c-.22 0-.4-.173-.4-.387 0-.213.18-.387.4-.387zm.8-1.895c.468 0 .847.368.847.82a.835.835 0 01-.847.822.835.835 0 01-.848-.821c0-.453.38-.82.848-.82zm.656-4.698c.243-.367.631-.393.983-.237.666.299 1.309.648 1.95.997.134.073.47.189.409.45-.163.215-.28.525-.494.615-.244.102-.612.087-.861-.019-.551-.231-1.073-.532-1.584-.84-.46-.275-.607-.657-.401-.967h-.002zm1.37-4.843c.28-.112.614.173.502.318-.139.2-.64 1.428-.827 1.628-.27.287-.377.105-.706.03-.234-.094.65-1.824 1.032-1.976zm1.703-4.263c.094-.038 1.633-2.625 2.823-3.602.035-.028.397-.122.457.097.118.296.005.358-.177.494-.119.088-.147.28-.238.416-.256.385-.514.773-.821 1.128-.7.808-1.254 1.669-1.552 2.652-.149.493-.393.965-.557 1.456-.097.288-.53.42-.713.42-.182 0-.387.15-.333-.301.116-.98 1.111-2.76 1.111-2.76zm-.5 16.71c-.692.686-1.41.898-2.176.531.516-.436 1.083-.718 1.288-1.346.187-.574.3-1.156.062-1.702-.232-.533-.606-1.008-.909-1.493.753-.189 1.77.545 2.14 1.169.551.932.22 2.223-.405 2.842zm-19.54 6.15c.617-.665 1.25-1.322 1.777-2.051.825-1.143 1.699-2.236 2.966-2.934 2.252-1.109 3.956-1.223 4.427-1.277.597-.07 1.197-.03 1.798-.082.607-.053 1.28.132 1.857.368.625.254 1.195.657 1.752 1.046 1.934 1.352 3.323 3.193 4.75 5.003.506.644 2.691 2.323 3.162 2.664.595.43 1.379.332 1.734.028.82-1.176.812-1.175.67-2.617a3.835 3.835 0 01.023-1.03c.24-1.366.534-2.724.758-4.093.1-.606.1-1.23.113-1.846.01-.506.168-3.145-.126-3.951-.137-.67-.344-1.058-.387-1.546.29-.425 1.965-2.35 2.01-2.657.067-.452.139-.737.358-1.078.419-.652.629-1.397.675-2.15.033-.537.64-3.679.859-4.32.09-.266.043-1.68.155-2.788.15-1.735.084-2.988-.57-4.291-.214-.223-.42-.355-.665-.52C38.969.062 38.628 0 38.332 0a1.53 1.53 0 00-.356.037c-.41.102-.838.186-1.214.365-1.087.517-2.196 1.008-3.213 1.636-1.36.842-2.538 1.916-3.636 3.065-.564.59-.949 1.337-1.6 1.84-.337.26-.552.56-.752.902-.175.298-.37.585-.563.873-.196.294-.396.587-.6.878-.298.428-.717.782-.868 1.303-.142.491-.274.987-.432 1.473-.083.254-.215.493-.332.752-.415-.122-1.923-.387-2.176-.411-.635-.061-1.278-.038-1.918-.03-.587.008-1.181-.006-1.76.074-.838.115-1.665.309-2.498.464-.882.164-1.024.087-1.406-.73-.422-.9-1.35-2.861-1.39-2.944-.109-.232-.186-.496-.355-.68-.508-.55-.904-1.19-1.492-1.68-.572-.477-1.068-1.04-1.649-1.504-.851-.678-1.747-1.305-2.63-1.945a7.628 7.628 0 00-.952-.616c-.707-.366-1.262-.897-1.796-1.46C4.05.928 3.184.551 2.178.518c-.428.019-.97.201-.97.201l-.86.503c-.24.355-.289.659-.304.97A51.68 51.68 0 000 4.464v.29l.002.532c0 .295.13.593.107.883-.052.663-.098 1.31-.054 1.987.07 1.103.404 2.167.368 3.292-.024.826.33 1.646.491 2.474.195 1.005.555 1.979.845 2.966.014.045.04.085.06.127.166.35.34.696.497 1.05.153.342.414 1.131.963 1.858-.003.614-.026 1.104-.015 1.558.013.51-.013 1-.203 1.49-.14.363-.421 2.722-.289 3.539.075.462.068.992.111 1.477.08.895.19 1.829.533 2.65.484 1.156 1.333 1.98 2.77 2.14a3.89 3.89 0 002.594-.59c.83-.528 1.613-1.14 2.29-1.87z" fill="#442C22"/><path fill-rule="evenodd" clip-rule="evenodd" d="M9.946 39.444c.617.539 1.628 1.528 2.975 1.925.386.114.79.164 1.177.274.404.116.785.297 1.18.44 1.518.553 3.184.545 4.803.471 2.719-.125 5.518-.445 7.882-1.752 1.218-.674 2.274-1.585 3.32-2.49.86-.744 1.615-1.456 2.327-2.316.766.381 1.591.912 2.343 1.512.049.025.099.054.149.09.78.57 1.732 1.275 1.732 1.275a24.224 24.224 0 01-1.278 6.535 24.397 24.397 0 01-1.457 3.384c-.108.207-.417.714-.585 1.18h.001c-.48-.055-1.3-.064-1.411-.06a7.221 7.221 0 00-1.785.3 7.005 7.005 0 00-1.752.8c-.496-.48-1.097-.856-1.715-1.184-1.002-.53-2.075-.98-3.211-1.087a4.763 4.763 0 00-1.841.18l-.041-.036c-1.502-1.512-3.654-1.31-5.059-.263-.021.017-.042.028-.063.043-.747-.858-1.905-1.336-3.027-1.683-1.123-.348-2.305-.612-3.49-.558-.235.01-.833.028-1.263.131l-.005-.017a14.999 14.999 0 01-.186-5.37l.282-1.722-.002-.002z" fill="#48C76C"/><path fill-rule="evenodd" clip-rule="evenodd" d="M24.646 36.305c-1.049-.62-2.365-.472-3.227-.217-.87.256-1.38.827-1.791 1.613-.126.012-.216-.04-.24-.166-.035-.18.094-.561.19-.712.166-.257.23-.675-.056-.794a.589.589 0 00-.296-.02c-.597.066-1.17.16-1.699.459-.744.512-1.03 1.007-1.03 1.007s.345 1.04 2.975 1.215c1.275.084 2.82-.23 3.96-.8.601-.3 1.184-.71 1.465-1.306-.07-.105-.163-.188-.25-.278zm-5.082-9.365c1.05-.147 1.877-.473 2.742.083.197.214.455.005.48-.362.012-.182-.144-.503-.267-.541-.254-.08-.795-.177-1.065-.15-.916.097-1.573.175-2.489.298-.29.04-.587.297-.838 1.082-.087.304.859-.22 1.436-.411zm6.971-4.858c0 .453.38.82.848.82a.834.834 0 00.847-.82c0-.453-.38-.82-.847-.82a.835.835 0 00-.848.82zm.448 1.461a.394.394 0 00-.4-.387c-.22 0-.4.173-.4.387 0 .214.18.387.4.387.221 0 .4-.173.4-.387zm2.803-1.893c.237.546.124 1.129-.062 1.701-.206.628-.773.91-1.288 1.347.765.366 1.483.154 2.175-.531.624-.619.956-1.91.404-2.841-.369-.624-1.385-1.358-2.138-1.169.302.485.675.96.909 1.493zm-1.345-4.12c.512.308 1.034.61 1.584.84.25.105.617.121.861.019.215-.09.332-.4.494-.615.062-.261-.275-.378-.409-.45-.64-.349-1.283-.698-1.949-.997-.35-.157-.74-.13-.982.237-.205.309-.06.692.401.967zm-.063-3.834c.329.075.436.257.705-.03.188-.2.689-1.428.828-1.628.112-.145-.223-.43-.502-.318-.382.152-1.266 1.882-1.032 1.976zM30 10.217c-.053.451.15.301.334.301.183 0 .616-.132.713-.42.164-.49.408-.963.557-1.456.298-.983.853-1.844 1.552-2.652.307-.354.564-.743.821-1.129.09-.136.118-.327.238-.415.182-.136.295-.198.177-.494-.059-.219-.42-.126-.457-.097-1.189.977-2.73 3.564-2.823 3.603 0 0-.995 1.78-1.111 2.76v-.001zM9.177 9.716c-.28-.814-.526-1.637-.819-2.447-.079-.217-.64-.85-.67-.988-.151-.716-.747-1.158-1.33-1.533-.435-.28-.849-.53-1.112-.953-.061-.097-.488-.17-.599.023-.179.567.058.386.406.703.563.511 1.131 1.036 1.578 1.626.308.407 1.254 2.605 1.669 3.48.108.228.364.467.325.666-.07.36.14.75.256.955.17.302.407 1.191.49 1.24.043.222.454 1.023.643 1.287.553.132.713-.062.525-.393-.245-.433-.642-1.639-.768-2.052-.166-.545-.409-1.073-.595-1.615h.001zm2.203 6.562c-.72-.07-2.436.894-2.678 1.555-.079.214-.064.525.048.714.072.123.433.197.603.135.75-.279 1.49-.594 2.21-.942.22-.106.363-.361.467-.47.117-.517-.219-.95-.651-.991v-.001zm.174 3.786c-.837.051-1.459.262-1.905.721-1.429 1.47-.598 3.542 1.157 4.093.31.098.657.135.97-.199-.204-.154-.413-.269-.563-.434-.247-.276-.534-.552-.67-.881-.425-1.045-.248-2.008.576-2.833.117-.117.225-.24.435-.467zm1.343 1.172a.86.86 0 00-.874.846.86.86 0 00.874.847c.482 0 .874-.379.874-.846a.86.86 0 00-.874-.847z" fill="#fff"/><path fill-rule="evenodd" clip-rule="evenodd" d="M12.459 23.543a.386.386 0 00-.392-.379.385.385 0 00-.391.38c0 .209.175.38.39.38.217 0 .393-.17.393-.38z" fill="#fff"/></svg>