<svg width="50" height="49" fill="none" xmlns="http://www.w3.org/2000/svg"><g clip-path="url(#clip0_233_750)"><path d="M38.796 7.354L22.54 2.998a2.911 2.911 0 00-3.565 2.062L10.13 38.07a2.911 2.911 0 002.058 3.565l16.257 4.356a2.914 2.914 0 003.566-2.058l8.845-33.01a2.916 2.916 0 00-2.059-3.57zm-7.683 31.493L13.45 34.114 20.564 7.56l17.665 4.733-7.116 26.555zm2.559-29.804l-7.538-2.02.22-.822 7.539 2.02-.221.822zm3.326.489a.746.746 0 01-1.442-.387.746.746 0 011.442.386zm-12.448 32.2l-6.864-1.839.566-2.112 6.864 1.84-.566 2.111z" fill="#fff"/></g><defs><clipPath id="clip0_233_750"><path fill="#fff" transform="rotate(15 5.676 43.112)" d="M0 0h40v40H0z"/></clipPath></defs></svg>