<svg width="70" height="67" fill="none" xmlns="http://www.w3.org/2000/svg"><path fill-rule="evenodd" clip-rule="evenodd" d="M86.63-52.2c8.38.34 17.255-1.361 24.896 1.47 7.627 2.825 11.93 9.348 17.69 14.31 5.465 4.707 11.539 8.899 15.681 14.433 4.29 5.732 9.852 11.891 9.019 18.573-.863 6.934-11.405 10.804-13.52 17.558-2.19 6.992 4.457 14.694 1.307 21.438-3.061 6.553-10.524 11.477-18.176 14.678-7.576 3.168-17.004.954-24.985 3.373-9.642 2.922-16.432 11.232-26.64 12.273-10.057 1.024-20.689-1.917-29.04-6.599-8.321-4.665-11.754-13.133-17.855-19.693-6.111-6.571-14.402-11.812-18.47-19.363C2.322 12.42-2.1 3.353 1.09-4.793c3.332-8.508 14.627-13.022 22.715-19.044 6.312-4.7 13.859-7.948 20.023-12.776 6.321-4.952 8.926-13.255 16.93-16.17 7.945-2.893 17.18.233 25.871.584z" fill="#48C76C"/></svg>