<svg width="37" height="36" fill="none" xmlns="http://www.w3.org/2000/svg"><path fill-rule="evenodd" clip-rule="evenodd" d="M12.675 2.288c1.755.095 3.436.973 4.924 2.447 1.5 1.485 2.455 3.806 3.575 5.971 1.521 2.94 3.894 5.236 4.174 9.007.29 3.913-.56 8.755-2.707 10.761-2.244 2.098-5.056-1.719-7.634-1.097-2.046.493-3.48 5.23-5.454 4.254-1.987-.982-1.579-6.015-2.992-8.429-1.49-2.546-4.533-2.532-5.32-5.77-.776-3.185.37-6.867 1.55-9.725 1.093-2.65 2.93-4.158 4.739-5.515 1.624-1.22 3.348-2.001 5.145-1.904z" fill="#48C76C" fill-opacity=".7"/><path d="M7.607.995h.15a.59.59 0 01.507.67c-.149 1.545-.306 3.089-.455 4.634.513 0 1.047.055 1.495.332.424.24.74.634.952 1.071.558 1.054 1.693 1.765 2.877 1.774 1.226.04 2.426-.68 3.002-1.775.23-.484.6-.906 1.083-1.14.42-.222.9-.258 1.364-.262-.15-1.545-.308-3.09-.455-4.634a.59.59 0 01.501-.67h.14a.599.599 0 01.489.537c.167 1.65.327 3.302.49 4.952.005.197.139.347.24.503.885 1.326 1.367 2.911 1.427 4.507.053 1.309-.153 2.618-.522 3.869-.05.192-.175.37-.366.434a.57.57 0 01-.716-.302c-.093-.186-.03-.398.021-.587.474-1.625.626-3.384.2-5.037a7.604 7.604 0 00-1.11-2.426c-.433.034-.91-.044-1.295.205-.228.134-.365.37-.486.598-.497.932-1.318 1.69-2.298 2.071a4.474 4.474 0 01-3.658-.173A4.574 4.574 0 019.2 8.154c-.15-.306-.415-.562-.75-.64-.321-.073-.654-.05-.98-.07-.892 1.274-1.349 2.833-1.358 4.39-.02 2.156.69 4.256 1.716 6.122.183.313.008.669-.054.99-.993 4.197-2.791 8.209-5.358 11.66-.13.182-.302.37-.284.613.004.218.153.402.339.5a22.589 22.589 0 004.111 1.783 27.75 27.75 0 002.772-6.312c.082-.375.557-.57.867-.344.247.151.31.483.205.742A28.937 28.937 0 017.72 33.83c2.849.743 5.844.9 8.752.454a22.065 22.065 0 007.452-2.567c.184-.096.332-.28.337-.498.019-.225-.133-.404-.254-.574-2.573-3.466-4.413-7.483-5.397-11.703a30.659 30.659 0 01-8.666.307.58.58 0 01-.203-1.078c.154-.09.339-.065.508-.054 2.878.3 5.798.153 8.637-.404.337-.099.69.154.732.502a30.634 30.634 0 005.285 11.714c.215.283.42.592.473.954.13.682-.196 1.425-.788 1.78A23.119 23.119 0 0113.56 35.69h-.729a23.155 23.155 0 01-11.024-3.027c-.616-.364-.941-1.148-.78-1.85.07-.368.302-.67.52-.962C4.062 26.45 5.8 22.49 6.741 18.355c-1.027-1.917-1.734-4.05-1.772-6.247-.039-1.8.434-3.625 1.432-5.122.1-.155.237-.304.242-.5.163-1.651.322-3.303.49-4.953.014-.269.226-.476.474-.538z" fill="#442C22"/><path d="M10.468 23.716c.358-.122.77.206.723.59-.038.262-.06.538-.177.78-.188.325-.692.36-.92.062-.224-.257-.093-.612-.043-.91.028-.236.183-.46.417-.522zm5.092.014c.35-.15.753.135.778.508a27.835 27.835 0 002.147 6.773c.143.27.04.639-.231.782a.56.56 0 01-.775-.239 28.648 28.648 0 01-2.274-7.18.575.575 0 01.355-.643zm13.612-7.786l.053.073c.09.185.048.424-.123.543a2.162 2.162 0 00-.69.864 2.13 2.13 0 00.138 1.954c.085.14.203.288.168.463a.42.42 0 01-.509.343c-.201-.044-.297-.247-.432-.382-.624-.68-1.705-.868-2.51-.433-.178.085-.335.26-.55.236a.431.431 0 01-.374-.518c.044-.208.254-.302.39-.442.667-.627.834-1.717.38-2.524-.083-.163-.234-.307-.231-.5-.003-.113.057-.21.12-.297l.078-.057c.169-.096.402-.076.53.082.163.19.323.388.535.528.61.439 1.455.515 2.126.19.154-.071.287-.18.442-.248.16-.064.344.003.46.125zm-2.966.933a3.09 3.09 0 01-.22 1.416c.48-.035.97.045 1.415.236a3.06 3.06 0 01.219-1.419 3.11 3.11 0 01-1.414-.233zm4.304 9.602l.053.073c.079.17.06.391-.09.513-.229.19-.48.35-.717.528.14.197.283.391.426.586.07.1.15.207.154.335a.42.42 0 01-.759.266c-.174-.226-.334-.463-.504-.693-.242.17-.473.355-.722.515a.421.421 0 01-.574-.154.418.418 0 01.082-.527c.23-.186.478-.346.714-.524-.165-.233-.34-.458-.5-.694a.424.424 0 01.015-.515c.15-.194.477-.204.635-.01.19.232.352.486.533.725.244-.17.476-.359.727-.518.169-.106.395-.05.527.094zm-4.357-3.446c.261.157.251.582-.016.721-.266.17-.657-.064-.635-.38-.008-.32.392-.528.65-.341zm1.219-11.556c.271.165.24.614-.05.735-.277.145-.643-.112-.603-.423.011-.31.403-.496.653-.312z" fill="#442C22"/></svg>