<svg width="56" height="54" fill="none" xmlns="http://www.w3.org/2000/svg"><path fill-rule="evenodd" clip-rule="evenodd" d="M18.19 2.013c2.733.147 5.349 1.514 7.665 3.808 2.334 2.312 3.82 5.924 5.563 9.293 2.368 4.577 6.06 8.15 6.496 14.02.452 6.089-.87 13.625-4.212 16.747-3.493 3.265-7.87-2.675-11.882-1.708-3.184.768-5.415 8.14-8.49 6.621-3.09-1.528-2.455-9.361-4.655-13.118-2.32-3.963-7.055-3.942-8.281-8.98-1.207-4.957.577-10.688 2.413-15.137 1.702-4.124 4.56-6.47 7.376-8.583 2.527-1.897 5.211-3.114 8.008-2.963z" fill="#48C76C" fill-opacity=".7"/><path d="M10.303 0h.233c.494.06.875.539.79 1.043-.232 2.405-.476 4.807-.71 7.212.8 0 1.63.085 2.328.517.66.374 1.15.987 1.482 1.667.868 1.641 2.635 2.748 4.477 2.761 1.909.062 3.777-1.057 4.672-2.762.359-.754.934-1.41 1.687-1.776.652-.345 1.399-.4 2.122-.407-.233-2.405-.479-4.807-.709-7.212-.088-.502.292-.977.78-1.043h.218c.4.081.737.411.761.836.261 2.569.51 5.139.762 7.708.008.306.217.54.375.783 1.377 2.063 2.128 4.53 2.22 7.014.084 2.037-.238 4.075-.812 6.021-.076.299-.273.575-.57.677a.887.887 0 01-1.113-.47c-.145-.29-.048-.621.032-.915.737-2.53.974-5.266.311-7.839a11.834 11.834 0 00-1.727-3.776c-.674.053-1.417-.068-2.015.32-.355.208-.569.574-.757.93-.774 1.45-2.052 2.63-3.577 3.223a6.964 6.964 0 01-5.693-.268c-1.322-.666-2.41-1.777-3.09-3.101-.232-.476-.646-.876-1.166-.997-.501-.113-1.018-.076-1.527-.107-1.387 1.981-2.098 4.408-2.112 6.83-.032 3.357 1.074 6.625 2.67 9.53.286.486.012 1.04-.084 1.54-1.545 6.532-4.344 12.776-8.338 18.148-.202.283-.472.577-.444.953.008.34.239.627.528.779a35.156 35.156 0 006.4 2.774 43.185 43.185 0 004.313-9.823c.128-.584.867-.888 1.35-.536.383.236.481.752.319 1.156a45.038 45.038 0 01-4.212 9.715 33.809 33.809 0 0013.621.707 34.342 34.342 0 0011.599-3.996c.287-.15.517-.437.524-.776.03-.349-.207-.629-.394-.892-4.006-5.396-6.87-11.647-8.4-18.216-4.446.788-9 .969-13.489.478a.885.885 0 01-.77-.775.901.901 0 01.454-.902c.24-.14.528-.101.791-.084 4.48.468 9.024.238 13.442-.629.525-.154 1.076.24 1.14.78 1.42 6.579 4.238 12.845 8.225 18.233.335.44.654.922.736 1.484.202 1.062-.305 2.22-1.226 2.77-5.215 2.985-11.172 4.605-17.16 4.713h-1.134c-5.987-.11-11.944-1.727-17.16-4.71-.958-.567-1.464-1.787-1.212-2.879.11-.573.469-1.045.809-1.498C4.786 39.619 7.49 33.456 8.954 27.02c-1.598-2.984-2.698-6.305-2.757-9.723-.06-2.801.675-5.642 2.229-7.971.155-.243.37-.474.376-.78.254-2.57.502-5.14.763-7.709.021-.417.351-.74.738-.837z" fill="#442C22"/><path d="M14.755 35.363c.558-.19 1.198.321 1.127.917-.06.41-.095.839-.277 1.215-.292.505-1.076.56-1.43.096-.35-.4-.147-.952-.068-1.414.043-.368.284-.717.649-.814zm7.925.023c.544-.233 1.173.209 1.212.789a43.319 43.319 0 003.341 10.541c.223.422.061.995-.36 1.217-.412.25-1.001.068-1.205-.37a44.582 44.582 0 01-3.54-11.175.895.895 0 01.553-1.002zm21.186-12.119l.083.114c.14.288.075.659-.192.844-.46.353-.849.806-1.075 1.345a3.315 3.315 0 00.216 3.04c.133.218.316.45.262.721a.653.653 0 01-.792.535c-.314-.068-.464-.384-.673-.594-.971-1.06-2.654-1.352-3.906-.675-.279.133-.522.404-.856.368-.384-.026-.678-.435-.584-.807.07-.323.396-.47.607-.688 1.04-.975 1.299-2.671.591-3.928-.127-.254-.362-.478-.358-.78-.005-.173.09-.326.186-.46l.123-.09c.262-.148.626-.117.825.128.253.296.502.605.832.822.95.684 2.265.803 3.31.296.238-.11.446-.278.686-.386.25-.1.535.005.715.195zm-4.617 1.451a4.81 4.81 0 01-.343 2.205 4.75 4.75 0 012.204.367 4.764 4.764 0 01.34-2.208 4.84 4.84 0 01-2.201-.364zm6.699 14.945l.083.115c.123.263.093.608-.14.798-.356.294-.748.543-1.117.822.22.305.441.608.664.912.11.156.233.322.239.52.02.31-.208.61-.512.67a.658.658 0 01-.668-.255c-.272-.352-.52-.72-.785-1.078-.378.263-.737.552-1.123.801-.295.187-.725.067-.894-.24a.65.65 0 01.127-.82c.358-.29.744-.54 1.112-.816-.256-.362-.529-.713-.778-1.08a.66.66 0 01.023-.802c.234-.302.742-.317.987-.015.297.36.55.756.83 1.128.381-.264.74-.559 1.133-.806.262-.165.615-.078.819.146zM39.167 34.3c.407.244.392.907-.026 1.123-.413.265-1.021-.1-.987-.593-.013-.496.61-.821 1.013-.53zm1.897-17.986c.422.257.375.957-.078 1.145-.43.225-1-.174-.938-.659.018-.482.627-.771 1.016-.486z" fill="#442C22"/></svg>