<svg width="42" height="30" fill="none" xmlns="http://www.w3.org/2000/svg"><path fill-rule="evenodd" clip-rule="evenodd" d="M19.055 4.197c-3.05-.617-6.164-2.142-9.1-1.183-3.051.998-5.439 3.52-6.44 6.263-.97 2.652.66 5.376 1.185 8.124.51 2.668-.09 5.693 1.85 7.78 1.95 2.096 5.257 2.733 8.29 3.122 2.752.353 5.449-.254 8.092-1.02 2.573-.746 5.294-1.49 7-3.353 1.685-1.841 2.16-4.321 2.193-6.692.031-2.177-.9-4.205-2.01-6.146-1.072-1.874-2.351-3.656-4.29-4.865-1.989-1.24-4.4-1.55-6.77-2.03z" fill="#48C76C" fill-opacity=".7"/><path d="M37.308 20.253l.022.088c.014.205-.113.41-.316.457-.359.101-.7.278-.963.545a2.13 2.13 0 00-.599 1.865c.027.161.081.344-.016.492a.42.42 0 01-.6.13c-.171-.116-.185-.34-.26-.515-.325-.865-1.258-1.441-2.167-1.337-.198.012-.408.115-.599.014a.43.43 0 01-.154-.62c.118-.177.348-.186.526-.266.853-.333 1.413-1.282 1.292-2.2-.015-.183-.101-.373-.027-.551.039-.105.131-.174.222-.23l.094-.024c.192-.026.401.08.461.273.08.237.155.481.3.69a2.124 2.124 0 001.902.967c.17-.008.333-.059.502-.065.173 0 .318.13.38.287zm-3.1-.239a3.09 3.09 0 01-.732 1.232 3.06 3.06 0 011.226.747c.142-.464.395-.89.73-1.235a3.11 3.11 0 01-1.224-.744zm6.595 5.056l.022.089c.01.187-.09.385-.274.443-.284.09-.577.144-.863.222.057.235.117.469.177.703.028.12.063.248.018.368a.42.42 0 01-.803-.035c-.078-.275-.137-.555-.21-.831-.288.066-.571.153-.861.209a.421.421 0 01-.476-.357.418.418 0 01.272-.459c.283-.087.573-.143.858-.22-.066-.278-.144-.552-.205-.83a.424.424 0 01.206-.473.419.419 0 01.592.227c.09.286.147.582.225.872.29-.067.575-.156.868-.21.196-.036.385.1.454.283zm-8.937.638c.184.243.017.634-.284.663-.31.06-.585-.304-.447-.59.111-.299.56-.343.731-.073zM37.3 15.437c.191.254-.005.66-.32.664-.31.031-.555-.344-.401-.618.125-.283.558-.31.722-.046zM9.216.965c.898-.286 1.85-.15 2.775-.182.327.025.718-.088.988.155.19.16.188.425.199.653a4.12 4.12 0 001.054 2.611c.91 1.013 2.314 1.543 3.656 1.372a4.04 4.04 0 002.373-1.172c.158-.166.363-.332.608-.287.41.034.655.574.4.907-1.09 1.264-2.814 1.92-4.458 1.723a5.419 5.419 0 01-3.617-1.969c-.65-.797-1.039-1.795-1.153-2.82-.58.003-1.161-.007-1.742.004a2.85 2.85 0 00-1.923.837c-2.33 2.354-4.65 4.716-6.98 7.072 1.599 1.62 3.197 3.238 4.794 4.859.546-.545 1.087-1.096 1.625-1.65-.002-.9-.005-1.8 0-2.702a.585.585 0 01.454-.595c.358-.092.727.231.7.603.004 5.829 0 11.659.001 17.488h16.756V10.858c.006-.244-.03-.497.047-.733a.578.578 0 01.831-.272c.206.118.293.366.28.596-.002 5.977 0 11.954-.002 17.931.038.37-.287.706-.654.665H8.47c-.191.004-.4-.042-.523-.202-.178-.204-.126-.495-.136-.744.004-4.451.002-8.902.001-13.352-.419.415-.815.855-1.251 1.25a.533.533 0 01-.693.04c-.313-.25-.578-.556-.863-.837a372.536 372.536 0 00-4.773-4.853A.84.84 0 010 9.948V9.79c.058-.277.289-.454.474-.645l7.014-7.11A4.095 4.095 0 019.216.966z" fill="#442C22"/><path d="M16.268.973c.131-.158.343-.196.537-.19h7.322c.768-.017 1.546.16 2.209.56.562.324.991.821 1.447 1.275 2.225 2.256 4.45 4.51 6.677 6.765a.89.89 0 01.236.404v.152a.807.807 0 01-.198.372c-1.841 1.869-3.686 3.734-5.528 5.604-.118.119-.266.227-.44.227-.327.026-.629-.28-.603-.611.002-.27.228-.445.396-.622 1.661-1.678 3.317-3.36 4.976-5.04-2.288-2.33-4.588-4.648-6.878-6.975a2.907 2.907 0 00-2.091-.937c-2.508-.004-5.016-.002-7.524 0-.171-.002-.358-.019-.489-.143a.595.595 0 01-.05-.841zm-1.736 9.924c1.453-.155 2.939.817 3.377 2.231.12.428-.355.847-.758.676-.26-.079-.346-.356-.45-.578-.398-.83-1.373-1.32-2.266-1.134-.752.133-1.4.716-1.627 1.452-.172.513-.088 1.062.01 1.58a6.17 6.17 0 002.744 4.003c.578.35 1.23.66 1.919.622.845-.11 1.61-.56 2.272-1.084a6.022 6.022 0 002.175-3.818c.068-.433.101-.887-.043-1.308-.23-.732-.874-1.318-1.624-1.443-.207-.039-.45-.043-.598-.218-.233-.238-.199-.672.07-.867.226-.184.53-.105.79-.06 1.05.205 1.965.975 2.37 1.977.297.687.296 1.46.163 2.187-.328 2.112-1.653 4.022-3.475 5.09-.842.488-1.828.866-2.81.67-1.136-.222-2.151-.87-2.98-1.67-1.316-1.276-2.155-3.061-2.238-4.911a3.336 3.336 0 011.09-2.565 3.247 3.247 0 011.89-.832z" fill="#442C22"/></svg>