<svg width="58" height="119" fill="none" xmlns="http://www.w3.org/2000/svg"><path fill-rule="evenodd" clip-rule="evenodd" d="M-1.581-33.683c-9.888 1.37-13.28 15.14-20.872 21.85-4.772 4.217-10.03 7.666-15.693 10.466-6.884 3.405-15.036 3.479-21.379 7.868-7.2 4.98-15.094 10.758-17.81 19.247-2.663 8.325-2.005 19.069 3.404 25.787 6.281 7.803 19.683 4.974 26.903 11.857 4.85 4.624 3.486 13.003 5.852 19.371 3.586 9.655 2.593 24.218 11.827 28.226 8.597 3.731 17.005-7.53 25.23-12.142 6.234-3.494 10.733-10.41 17.668-11.91 9.643-2.086 21.45 8.046 29.22 1.77 7.052-5.7 2.395-18.11 2.417-27.333.017-7.347-2.859-14.386-2.302-21.714.6-7.9 6.157-14.942 5.688-22.847-.488-8.223-3.142-16.712-8.4-22.888-5.26-6.178-14.199-7.1-20.91-11.537-7.366-4.87-12.149-17.275-20.843-16.07z" fill="#48C76C"/><circle cx="44.947" cy="51.947" r="3.089" transform="rotate(160.378 44.947 51.947)" fill="#442C22"/><circle cx="46.078" cy="96.01" r="3.192" transform="rotate(160.378 46.078 96.01)" fill="#442C22"/><circle cx="51.393" cy="78.006" r="2.352" transform="rotate(160.378 51.393 78.006)" fill="#442C22"/><circle cx="13.94" cy="42.295" r="3.193" transform="rotate(-60 13.94 42.295)" fill="#442C22"/><circle cx="16.526" cy="77.525" r="4.325" transform="rotate(-19.622 16.526 77.525)" fill="#442C22"/><circle cx="36.874" cy="66.902" r="3.248" transform="rotate(160.378 36.874 66.902)" fill="#442C22"/><circle cx="35.114" cy="82.901" r="4.325" transform="rotate(160.378 35.114 82.901)" fill="#442C22"/><circle cx="34.48" cy="38.146" r="1.921" transform="rotate(-19.622 34.48 38.146)" fill="#442C22"/><circle cx="23.203" cy="55.203" r="5.183" transform="rotate(-.225 23.203 55.203)" fill="#442C22"/></svg>