<svg width="15" height="26" fill="none" xmlns="http://www.w3.org/2000/svg"><path d="M4.86 17.474v-1.459c0-.886.269-1.697.806-2.431.556-.757 1.163-1.362 1.819-1.816a8.468 8.468 0 001.789-1.686c.557-.691.835-1.415.835-2.172 0-.691-.259-1.307-.775-1.848-.517-.562-1.114-.843-1.79-.843-.676 0-1.272.281-1.789.843-.517.562-.775 1.21-.775 1.945V8.3c0 .41-.229.616-.686.616H.596C.198 8.915 0 8.7 0 8.267v-.551C0 5.49.745 3.653 2.236 2.204 3.727.734 5.486 0 7.514 0c2.068 0 3.827.767 5.279 2.302C14.263 3.815 15 5.695 15 7.942c0 1.124-.16 2.086-.478 2.886-.318.8-.705 1.416-1.163 1.848-.457.432-.914.821-1.371 1.167-.458.324-.865.67-1.223 1.037a2.164 2.164 0 00-.626 1.265v1.329c0 .54-.269.81-.805.81H5.606c-.497 0-.746-.27-.746-.81zm.656 7.683a3.026 3.026 0 01-.775-2.075c0-.8.259-1.491.775-2.075.537-.583 1.173-.875 1.909-.875.775 0 1.421.292 1.938.875.517.562.776 1.254.776 2.075 0 .8-.259 1.492-.776 2.075C8.846 25.72 8.2 26 7.425 26c-.736 0-1.372-.281-1.909-.843z" fill="#FE3567"/></svg>