<svg width="30" height="27" fill="none" xmlns="http://www.w3.org/2000/svg"><path d="M29.838 7.229a.553.553 0 00-.022-.021l-6.192-5.466a.588.588 0 00-.195-.117L18.95.035a.59.59 0 00-.788.52c0 .13-.195 3.093-3.18 3.14-3.001-.047-3.19-3.01-3.196-3.14a.587.587 0 00-.783-.52L6.53 1.643a.59.59 0 00-.195.117L.183 7.208a.582.582 0 000 .847l4.897 4.916v13.445c0 .322.264.584.59.584h18.66a.587.587 0 00.589-.584V12.97l4.897-4.916a.582.582 0 00.022-.826z" fill="#FFE500"/><path d="M16.9 14.82c.989-.474 1.793-1.352 2.338-2.357.393-.727.667-1.555.6-2.37-.067-.815-.546-1.315-1.267-1.566-.667-.23-1.401.067-2.097-.06-.506-.09-.998-.556-1.51-.452-.47.094-.795.48-1.043.925-.25.445-.451.798-.688 1.249-.19.364-.433.696-.719.981-.52.522-1.207.935-1.44 1.647-.175.54-.03 1.145.295 1.572.324.427.805.69 1.307.833 1.312.373 2.951.208 4.223-.402z" fill="#fff"/><path d="M16.652 9.066c-.889-.29-1.87-.13-2.751.309-.637.317-1.25.798-1.635 1.5-.386.7-.34 1.427-.006 2.118.31.637.941.897 1.324 1.47.279.417.352 1.125.738 1.39.353.243.765.153 1.16-.037.395-.19.711-.335 1.102-.538.314-.163.646-.265.98-.301.611-.067 1.273.067 1.798-.348.397-.315.621-.9.637-1.463.015-.564-.157-1.102-.407-1.558-.65-1.19-1.797-2.17-2.94-2.542z" fill="#fff"/></svg>