<svg width="27" height="28" fill="none" xmlns="http://www.w3.org/2000/svg"><path d="M13.5.276C6.044.276 0 6.326 0 13.787c0 7.462 6.044 13.511 13.5 13.511S27 21.25 27 13.789C27 6.324 20.956.275 13.5.275zm6.848 14.973c.63.615 1.295 1.194 1.86 1.872.25.3.486.611.665.96.257.498.025 1.044-.42 1.074l-2.766-.001c-.714.06-1.283-.23-1.762-.718-.382-.39-.737-.805-1.106-1.208a2.588 2.588 0 00-.498-.444c-.377-.245-.704-.17-.92.224-.22.401-.27.846-.292 1.292-.03.653-.226.824-.88.854-1.4.066-2.726-.146-3.959-.852-1.088-.622-1.93-1.5-2.663-2.495-1.429-1.938-2.523-4.066-3.506-6.254-.221-.493-.06-.757.484-.767a76.875 76.875 0 012.708-.001c.368.006.61.216.752.563a16.824 16.824 0 001.835 3.404c.2.282.403.564.694.763.32.22.564.147.716-.21.096-.228.138-.471.159-.715.072-.835.08-1.67-.044-2.502-.077-.52-.37-.857-.888-.955-.264-.05-.226-.148-.097-.3.223-.26.431-.422.849-.422h3.125c.492.097.602.318.67.814l.002 3.476c-.006.192.096.761.441.887.277.091.459-.13.624-.305.75-.796 1.283-1.736 1.761-2.708.211-.429.393-.872.57-1.317.132-.328.336-.49.707-.485l3.009.004c.088 0 .179 0 .266.016.508.087.646.305.49.8-.247.778-.727 1.426-1.196 2.076-.503.695-1.039 1.367-1.537 2.065-.457.639-.421.96.147 1.515z" fill="#FE3567"/></svg>