<svg width="27" height="28" fill="none" xmlns="http://www.w3.org/2000/svg"><path d="M13.503.276h-.006C6.053.276 0 6.336 0 13.787c0 2.956.952 5.695 2.57 7.92L.888 26.726l5.189-1.66a13.375 13.375 0 007.426 2.233C20.947 27.299 27 21.236 27 13.788 27 6.337 20.947.275 13.503.275zm7.856 19.08c-.326.92-1.619 1.683-2.65 1.906-.705.15-1.626.27-4.728-1.016-3.967-1.645-6.522-5.68-6.721-5.942-.191-.261-1.603-2.136-1.603-4.075s.983-2.883 1.38-3.288c.326-.333.864-.485 1.38-.485.167 0 .318.008.453.015.396.017.595.04.857.667.325.786 1.119 2.724 1.213 2.924.096.2.192.47.057.731-.126.27-.238.39-.437.62-.199.23-.388.405-.587.652-.182.214-.388.444-.159.84.23.39 1.023 1.685 2.19 2.725 1.508 1.343 2.73 1.772 3.167 1.954.325.135.713.103.951-.15.302-.326.675-.867 1.055-1.399.27-.381.61-.429.969-.293.364.126 2.293 1.08 2.69 1.278.396.2.658.294.754.461.094.167.094.953-.231 1.875z" fill="#FE3567"/></svg>