<svg width="15" height="15" fill="none" xmlns="http://www.w3.org/2000/svg"><path d="M8.936 7.5a1.436 1.436 0 11-2.872 0 1.436 1.436 0 012.872 0z" fill="#fff"/><path d="M10.857 4.96a1.334 1.334 0 00-.322-.495 1.333 1.333 0 00-.495-.322c-.152-.059-.38-.129-.8-.148-.454-.02-.59-.025-1.74-.025s-1.286.004-1.74.025c-.42.019-.648.09-.8.148a1.36 1.36 0 00-.495.322 1.335 1.335 0 00-.322.495c-.06.152-.13.38-.149.8-.02.454-.025.59-.025 1.74s.005 1.287.025 1.74c.02.42.09.649.149.8.069.188.179.357.322.496.139.143.308.253.495.322.152.059.38.129.8.148.454.02.59.025 1.74.025s1.286-.004 1.74-.025c.42-.02.648-.09.8-.148.376-.145.672-.442.817-.818.06-.151.13-.38.149-.8.02-.453.025-.59.025-1.74s-.005-1.286-.025-1.74c-.02-.42-.09-.648-.149-.8zM7.5 9.712a2.211 2.211 0 110-4.423 2.211 2.211 0 010 4.423zm2.299-3.994a.517.517 0 110-1.033.517.517 0 010 1.033z" fill="#fff"/><path d="M7.5 0a7.5 7.5 0 10.002 15.002A7.5 7.5 0 007.5 0zm4.28 9.276c-.02.458-.093.771-.2 1.045a2.202 2.202 0 01-1.259 1.26c-.274.106-.587.179-1.045.2-.46.02-.606.026-1.776.026s-1.316-.005-1.776-.026c-.458-.021-.771-.094-1.045-.2a2.109 2.109 0 01-.763-.497 2.11 2.11 0 01-.496-.763c-.107-.274-.18-.587-.2-1.045-.022-.46-.027-.606-.027-1.776s.005-1.316.026-1.776c.021-.458.094-.771.2-1.045a2.11 2.11 0 01.497-.763 2.11 2.11 0 01.763-.497c.274-.106.587-.179 1.045-.2.46-.02.606-.026 1.776-.026s1.316.005 1.776.026c.458.021.771.094 1.045.2.287.109.548.278.763.497.219.215.389.476.497.763.106.274.179.587.2 1.045.02.46.026.606.026 1.776s-.005 1.316-.026 1.776z" fill="#fff"/></svg>