<svg width="15" height="15" fill="none" xmlns="http://www.w3.org/2000/svg"><path d="M7.5 0a7.5 7.5 0 100 15 7.5 7.5 0 000-15zm3.804 8.311c.35.342.72.663 1.034 1.04.139.166.27.339.37.532.142.277.013.58-.234.596h-1.537c-.396.033-.712-.127-.979-.398-.212-.217-.41-.448-.614-.671a1.437 1.437 0 00-.277-.246c-.21-.137-.391-.095-.511.124-.122.223-.15.47-.162.717-.017.362-.126.457-.49.474-.776.037-1.513-.081-2.198-.473-.605-.345-1.072-.833-1.48-1.385-.794-1.076-1.401-2.257-1.948-3.472-.122-.273-.033-.42.27-.425.5-.01 1.002-.009 1.504 0 .204.002.339.12.417.312a9.336 9.336 0 001.02 1.89c.11.156.224.312.385.423.178.122.314.081.398-.117a1.27 1.27 0 00.088-.397c.04-.463.045-.927-.024-1.389-.043-.289-.205-.475-.493-.53-.147-.028-.126-.082-.054-.166.124-.145.24-.234.471-.234h1.736c.274.053.335.176.373.452l.001 1.929c-.003.106.054.423.245.492.154.051.255-.072.347-.17.416-.441.713-.962.978-1.502.117-.238.219-.484.317-.731.073-.183.186-.272.392-.27l1.672.003c.05 0 .1 0 .148.009.282.048.359.169.272.444-.137.432-.404.791-.664 1.152-.28.386-.578.759-.854 1.146-.254.355-.234.533.081.841z" fill="#fff"/></svg>